<?xml version="1.0" encoding="UTF-8"?>
<svg width="548px" height="227px" viewBox="0 0 548 227" version="1.1" xmlns="http://www.w3.org/2000/svg" xmlns:xlink="http://www.w3.org/1999/xlink">
    <title>Logo</title>
    <defs>
        <path d="M160.316406,65.703125 C161.136719,65.703125 161.904297,65.515625 162.619141,65.140625 C163.333984,64.765625 163.890625,64.2148438 164.289062,63.4882812 L164.289062,63.4882812 L180.496094,34.9765625 L180.496094,65 L189.707031,65 L189.707031,18.4882812 C189.707031,17.4335938 189.390625,16.4960938 188.757812,15.6757813 C188.125,14.8554688 187.316406,14.3046875 186.332031,14.0234375 C185.300781,13.765625 184.310547,13.8242188 183.361328,14.1992188 C182.412109,14.5742188 181.667969,15.2070313 181.128906,16.0976562 L181.128906,16.0976562 L160.316406,52.2734375 L139.503906,16.0976562 C139.246094,15.6523438 138.929688,15.2714844 138.554688,14.9550781 C138.179688,14.6386719 137.763672,14.3925781 137.306641,14.2167969 C136.849609,14.0410156 136.375,13.9355469 135.882812,13.9003906 C135.390625,13.8652344 134.898438,13.90625 134.40625,14.0234375 C133.398438,14.3046875 132.583984,14.8554688 131.962891,15.6757813 C131.341797,16.4960938 131.03125,17.4335938 131.03125,18.4882812 L131.03125,18.4882812 L131.03125,65 L140.171875,65 L140.171875,34.9765625 L156.449219,63.4882812 C156.847656,64.2148438 157.392578,64.765625 158.083984,65.140625 C158.775391,65.515625 159.519531,65.703125 160.316406,65.703125 Z M228.777344,65 C231.074219,65 233.025391,64.578125 234.630859,63.734375 C236.236328,62.890625 237.537109,61.8417969 238.533203,60.5878906 C239.529297,59.3339844 240.25,57.9746094 240.695312,56.5097656 C241.140625,55.0449219 241.363281,53.6796875 241.363281,52.4140625 L241.363281,52.4140625 L241.363281,39.5820312 C241.363281,37.2851562 240.941406,35.3339844 240.097656,33.7285156 C239.253906,32.1230469 238.205078,30.8222656 236.951172,29.8261719 C235.697266,28.8300781 234.337891,28.109375 232.873047,27.6640625 C231.408203,27.21875 230.042969,26.9960938 228.777344,26.9960938 L228.777344,26.9960938 L208.703125,26.9960938 L208.703125,35.6796875 L228.777344,35.6796875 C229.902344,35.6796875 230.833984,36.03125 231.572266,36.734375 C232.310547,37.4375 232.679688,38.3867188 232.679688,39.5820312 L232.679688,39.5820312 L232.679688,52.34375 C232.679688,53.46875 232.339844,54.40625 231.660156,55.15625 C230.980469,55.90625 230.019531,56.28125 228.777344,56.28125 L228.777344,56.28125 L212.359375,56.28125 C211.28125,56.28125 210.349609,55.9472656 209.564453,55.2792969 C208.779297,54.6113281 208.386719,53.6796875 208.386719,52.484375 C208.386719,51.359375 208.726562,50.4160156 209.40625,49.6542969 C210.085938,48.8925781 211.046875,48.5117188 212.289062,48.5117188 L212.289062,48.5117188 L228.777344,48.5117188 L228.777344,39.7929688 L212.289062,39.7929688 C209.992188,39.7929688 208.041016,40.2148438 206.435547,41.0585938 C204.830078,41.9023438 203.529297,42.9511719 202.533203,44.2050781 C201.537109,45.4589844 200.816406,46.8242188 200.371094,48.3007812 C199.925781,49.7773438 199.703125,51.1484375 199.703125,52.4140625 C199.703125,54.7109375 200.125,56.6621094 200.96875,58.2675781 C201.8125,59.8730469 202.861328,61.1738281 204.115234,62.1699219 C205.369141,63.1660156 206.728516,63.8867188 208.193359,64.3320312 C209.658203,64.7773438 211.023438,65 212.289062,65 L212.289062,65 L228.777344,65 Z M276.074219,65 C276.941406,65 277.861328,64.9003906 278.833984,64.7011719 C279.806641,64.5019531 280.767578,64.1914062 281.716797,63.7695312 C282.666016,63.3476562 283.574219,62.8027344 284.441406,62.1347656 C285.308594,61.4667969 286.070312,60.6582031 286.726562,59.7089844 C287.382812,58.7597656 287.910156,57.6582031 288.308594,56.4042969 C288.707031,55.1503906 288.90625,53.7382812 288.90625,52.1679688 C288.90625,50.8789062 288.677734,49.484375 288.220703,47.984375 C287.763672,46.484375 287.03125,45.0957031 286.023438,43.8183594 C285.015625,42.5410156 283.691406,41.4804688 282.050781,40.6367188 C280.410156,39.7929688 278.417969,39.3710938 276.074219,39.3710938 L276.074219,39.3710938 L261.90625,39.3710938 C261.695312,39.3710938 261.478516,39.3652344 261.255859,39.3535156 C261.033203,39.3417969 260.833984,39.2890625 260.658203,39.1953125 C260.482422,39.1015625 260.335938,38.9492188 260.21875,38.7382812 C260.101562,38.5273438 260.03125,38.234375 260.007812,37.859375 C260.007812,37.671875 260.019531,37.4785156 260.042969,37.2792969 C260.066406,37.0800781 260.142578,36.8925781 260.271484,36.7167969 C260.400391,36.5410156 260.599609,36.4003906 260.869141,36.2949219 C261.138672,36.1894531 261.507812,36.1367188 261.976562,36.1367188 L261.976562,36.1367188 L284.371094,36.1367188 L284.371094,26.9960938 L261.90625,26.9960938 C260.78125,26.9960938 259.574219,27.1894531 258.285156,27.5761719 C256.996094,27.9628906 255.800781,28.5898438 254.699219,29.4570312 C253.597656,30.3242188 252.683594,31.4550781 251.957031,32.8496094 C251.230469,34.2441406 250.867188,35.9609375 250.867188,38 C250.867188,39.0546875 251.060547,40.1914062 251.447266,41.4101562 C251.833984,42.6289062 252.466797,43.765625 253.345703,44.8203125 C254.224609,45.875 255.367188,46.7539062 256.773438,47.4570312 C258.179688,48.1601562 259.890625,48.5117188 261.90625,48.5117188 L261.90625,48.5117188 L276.074219,48.5117188 C278.417969,48.5117188 279.648438,49.7304688 279.765625,52.1679688 C279.765625,53.3632812 279.449219,54.2773438 278.816406,54.9101562 C278.183594,55.5429688 277.246094,55.859375 276.003906,55.859375 L276.003906,55.859375 L251.324219,55.859375 L251.324219,65 L276.074219,65 Z M316.269531,65 L316.269531,36.1367188 L332.230469,36.1367188 L332.230469,26.9960938 L316.269531,26.9960938 L316.269531,14.5859375 L307.023438,14.5859375 L307.023438,26.9960938 L295.140625,26.9960938 L295.140625,36.1367188 L307.023438,36.1367188 L307.023438,65 L316.269531,65 Z M369.402344,65 L369.402344,56.28125 L352.984375,56.28125 C351.859375,56.28125 350.916016,55.9414062 350.154297,55.2617188 C349.392578,54.5820312 349.011719,53.6328125 349.011719,52.4140625 L349.011719,52.4140625 L349.011719,39.6523438 C349.011719,38.5273438 349.351562,37.5839844 350.03125,36.8222656 C350.710938,36.0605469 351.671875,35.6796875 352.914062,35.6796875 L352.914062,35.6796875 L369.402344,35.6796875 C370.480469,35.6796875 371.400391,36.0195312 372.162109,36.6992188 C372.923828,37.3789062 373.304688,38.3164062 373.304688,39.5117188 C373.304688,40.6367188 372.964844,41.5800781 372.285156,42.3417969 C371.605469,43.1035156 370.644531,43.484375 369.402344,43.484375 L369.402344,43.484375 L352.914062,43.484375 L352.914062,52.1679688 L369.402344,52.1679688 C371.699219,52.1679688 373.650391,51.7460938 375.255859,50.9023438 C376.861328,50.0585938 378.162109,49.0097656 379.158203,47.7558594 C380.154297,46.5019531 380.875,45.1425781 381.320312,43.6777344 C381.765625,42.2128906 381.988281,40.8476562 381.988281,39.5820312 C381.988281,37.2851562 381.566406,35.3339844 380.722656,33.7285156 C379.878906,32.1230469 378.830078,30.8222656 377.576172,29.8261719 C376.322266,28.8300781 374.962891,28.109375 373.498047,27.6640625 C372.033203,27.21875 370.667969,26.9960938 369.402344,26.9960938 L369.402344,26.9960938 L352.914062,26.9960938 C350.617188,26.9960938 348.666016,27.4179688 347.060547,28.2617188 C345.455078,29.1054688 344.154297,30.1542969 343.158203,31.4082031 C342.162109,32.6621094 341.441406,34.0214844 340.996094,35.4863281 C340.550781,36.9511719 340.328125,38.3164062 340.328125,39.5820312 L340.328125,39.5820312 L340.328125,52.4140625 C340.328125,54.7109375 340.75,56.6621094 341.59375,58.2675781 C342.4375,59.8730469 343.486328,61.1738281 344.740234,62.1699219 C345.994141,63.1660156 347.353516,63.8867188 348.818359,64.3320312 C350.283203,64.7773438 351.648438,65 352.914062,65 L352.914062,65 L369.402344,65 Z M400.070312,65 L400.070312,39.7929688 C400.070312,38.5976562 400.386719,37.6894531 401.019531,37.0683594 C401.652344,36.4472656 402.589844,36.1367188 403.832031,36.1367188 L403.832031,36.1367188 L424.398438,36.1367188 L424.398438,26.9960938 L403.761719,26.9960938 C402.917969,26.9960938 402.009766,27.0957031 401.037109,27.2949219 C400.064453,27.4941406 399.103516,27.8046875 398.154297,28.2265625 C397.205078,28.6484375 396.296875,29.1933594 395.429688,29.8613281 C394.5625,30.5292969 393.794922,31.3378906 393.126953,32.2871094 C392.458984,33.2363281 391.925781,34.3320312 391.527344,35.5742188 C391.128906,36.8164062 390.929688,38.2226562 390.929688,39.7929688 L390.929688,39.7929688 L390.929688,65 L400.070312,65 Z M442.691406,19.1914062 L442.691406,10.9296875 L433.550781,10.9296875 L433.550781,19.1914062 L442.691406,19.1914062 Z M442.691406,65 L442.691406,26.9960938 L433.550781,26.9960938 L433.550781,65 L442.691406,65 Z M463.585938,65 L463.585938,36.1367188 L479.582031,36.1367188 C480.683594,36.1367188 481.708984,36.3183594 482.658203,36.6816406 C483.607422,37.0449219 484.433594,37.5664062 485.136719,38.2460938 C485.839844,38.9257812 486.396484,39.7402344 486.806641,40.6894531 C487.216797,41.6386719 487.421875,42.7109375 487.421875,43.90625 L487.421875,43.90625 L487.421875,65 L496.5625,65 L496.5625,43.90625 C496.5625,41.84375 496.304688,39.9921875 495.789062,38.3515625 C495.273438,36.7109375 494.576172,35.2636719 493.697266,34.0097656 C492.818359,32.7558594 491.810547,31.6894531 490.673828,30.8105469 C489.537109,29.9316406 488.341797,29.2050781 487.087891,28.6308594 C485.833984,28.0566406 484.568359,27.640625 483.291016,27.3828125 C482.013672,27.125 480.800781,26.9960938 479.652344,26.9960938 L479.652344,26.9960938 L459.050781,26.9960938 C458.417969,26.9960938 457.820312,27.1132812 457.257812,27.3476562 C456.695312,27.5820312 456.203125,27.9042969 455.78125,28.3144531 C455.359375,28.7246094 455.03125,29.2050781 454.796875,29.7558594 C454.5625,30.3066406 454.445312,30.8984375 454.445312,31.53125 L454.445312,31.53125 L454.445312,65 L463.585938,65 Z M536.089844,81.4882812 C536.957031,81.4882812 537.876953,81.3886719 538.849609,81.1894531 C539.822266,80.9902344 540.783203,80.6796875 541.732422,80.2578125 C542.681641,79.8359375 543.589844,79.2910156 544.457031,78.6230469 C545.324219,77.9550781 546.085938,77.1464844 546.742188,76.1972656 C547.398438,75.2480469 547.925781,74.1464844 548.324219,72.8925781 C548.722656,71.6386719 548.921875,70.2265625 548.921875,68.65625 L548.921875,68.65625 L548.921875,39.7929688 C548.921875,38.2226562 548.722656,36.8164062 548.324219,35.5742188 C547.925781,34.3320312 547.398438,33.2363281 546.742188,32.2871094 C546.085938,31.3378906 545.324219,30.5292969 544.457031,29.8613281 C543.589844,29.1933594 542.681641,28.6484375 541.732422,28.2265625 C540.783203,27.8046875 539.822266,27.4941406 538.849609,27.2949219 C537.876953,27.0957031 536.957031,26.9960938 536.089844,26.9960938 L536.089844,26.9960938 L519.601562,26.9960938 C518.03125,26.9960938 516.625,27.1953125 515.382812,27.59375 C514.140625,27.9921875 513.044922,28.5195312 512.095703,29.1757812 C511.146484,29.8320312 510.337891,30.59375 509.669922,31.4609375 C509.001953,32.328125 508.457031,33.2363281 508.035156,34.1855469 C507.613281,35.1347656 507.302734,36.0898438 507.103516,37.0507812 C506.904297,38.0117188 506.804688,38.9257812 506.804688,39.7929688 L506.804688,39.7929688 L506.804688,52.1679688 C506.804688,53.7382812 507.003906,55.1503906 507.402344,56.4042969 C507.800781,57.6582031 508.328125,58.7597656 508.984375,59.7089844 C509.640625,60.6582031 510.402344,61.4667969 511.269531,62.1347656 C512.136719,62.8027344 513.044922,63.3476562 513.994141,63.7695312 C514.943359,64.1914062 515.898438,64.5019531 516.859375,64.7011719 C517.820312,64.9003906 518.734375,65 519.601562,65 L519.601562,65 L536.089844,65 L536.089844,55.859375 L519.671875,55.859375 C518.453125,55.859375 517.527344,55.5429688 516.894531,54.9101562 C516.261719,54.2773438 515.945312,53.3632812 515.945312,52.1679688 L515.945312,52.1679688 L515.945312,39.7929688 C515.945312,38.7382812 516.273438,37.8652344 516.929688,37.1738281 C517.585938,36.4824219 518.476562,36.1367188 519.601562,36.1367188 L519.601562,36.1367188 L536.089844,36.1367188 C537.332031,36.1367188 538.257812,36.4472656 538.867188,37.0683594 C539.476562,37.6894531 539.78125,38.5976562 539.78125,39.7929688 L539.78125,39.7929688 L539.78125,68.65625 C539.78125,69.8515625 539.476562,70.765625 538.867188,71.3984375 C538.257812,72.03125 537.332031,72.3476562 536.089844,72.3476562 L536.089844,72.3476562 L519.601562,72.3476562 L519.601562,81.4882812 L536.089844,81.4882812 Z M328.410156,145 L328.410156,107.417969 C328.410156,106.222656 328.726562,105.308594 329.359375,104.675781 C329.992188,104.042969 330.917969,103.726562 332.136719,103.726562 L332.136719,103.726562 L352.738281,103.726562 C353.933594,103.726562 354.988281,103.919922 355.902344,104.306641 C356.816406,104.693359 357.595703,105.226562 358.240234,105.90625 C358.884766,106.585938 359.394531,107.40625 359.769531,108.367188 C360.144531,109.328125 360.390625,110.382812 360.507812,111.53125 L360.507812,111.53125 L360.507812,115.679688 C360.507812,116.851562 360.320312,117.900391 359.945312,118.826172 C359.570312,119.751953 359.042969,120.542969 358.363281,121.199219 C357.683594,121.855469 356.869141,122.376953 355.919922,122.763672 C354.970703,123.150391 353.910156,123.390625 352.738281,123.484375 L352.738281,123.484375 L332.066406,123.484375 L332.066406,132.625 L352.738281,132.625 C353.863281,132.625 355.064453,132.496094 356.341797,132.238281 C357.619141,131.980469 358.884766,131.570312 360.138672,131.007812 C361.392578,130.445312 362.59375,129.71875 363.742188,128.828125 C364.890625,127.9375 365.904297,126.865234 366.783203,125.611328 C367.662109,124.357422 368.359375,122.910156 368.875,121.269531 C369.390625,119.628906 369.648438,117.765625 369.648438,115.679688 L369.648438,115.679688 L369.648438,111.53125 C369.648438,110.40625 369.519531,109.205078 369.261719,107.927734 C369.003906,106.650391 368.587891,105.384766 368.013672,104.130859 C367.439453,102.876953 366.712891,101.675781 365.833984,100.527344 C364.955078,99.3789062 363.888672,98.3652344 362.634766,97.4863281 C361.380859,96.6074219 359.933594,95.9042969 358.292969,95.3769531 C356.652344,94.8496094 354.800781,94.5859375 352.738281,94.5859375 L352.738281,94.5859375 L332.066406,94.5859375 C330.800781,94.5859375 329.417969,94.8144531 327.917969,95.2714844 C326.417969,95.7285156 325.029297,96.4609375 323.751953,97.46875 C322.474609,98.4765625 321.408203,99.8007812 320.552734,101.441406 C319.697266,103.082031 319.269531,105.074219 319.269531,107.417969 L319.269531,107.417969 L319.269531,145 L328.410156,145 Z M396.132812,145 L396.132812,135.859375 L392.054688,135.859375 C391,135.859375 390.121094,135.525391 389.417969,134.857422 C388.714844,134.189453 388.363281,133.292969 388.363281,132.167969 L388.363281,132.167969 L388.363281,90.9296875 L379.222656,90.9296875 L379.222656,132.167969 C379.222656,134.535156 379.644531,136.533203 380.488281,138.162109 C381.332031,139.791016 382.398438,141.115234 383.6875,142.134766 C384.976562,143.154297 386.365234,143.886719 387.853516,144.332031 C389.341797,144.777344 390.742188,145 392.054688,145 L392.054688,145 L396.132812,145 Z M433.515625,145 C434.382812,145 435.302734,144.900391 436.275391,144.701172 C437.248047,144.501953 438.208984,144.191406 439.158203,143.769531 C440.107422,143.347656 441.015625,142.802734 441.882812,142.134766 C442.75,141.466797 443.511719,140.658203 444.167969,139.708984 C444.824219,138.759766 445.351562,137.658203 445.75,136.404297 C446.148438,135.150391 446.347656,133.738281 446.347656,132.167969 L446.347656,132.167969 L446.347656,119.792969 C446.347656,118.503906 446.119141,117.109375 445.662109,115.609375 C445.205078,114.109375 444.472656,112.720703 443.464844,111.443359 C442.457031,110.166016 441.132812,109.105469 439.492188,108.261719 C437.851562,107.417969 435.859375,106.996094 433.515625,106.996094 L433.515625,106.996094 L417.027344,106.996094 C415.761719,106.996094 414.378906,107.21875 412.878906,107.664062 C411.378906,108.109375 409.990234,108.841797 408.712891,109.861328 C407.435547,110.880859 406.369141,112.205078 405.513672,113.833984 C404.658203,115.462891 404.230469,117.449219 404.230469,119.792969 L404.230469,119.792969 L404.230469,132.167969 C404.230469,134.535156 404.658203,136.533203 405.513672,138.162109 C406.369141,139.791016 407.435547,141.115234 408.712891,142.134766 C409.990234,143.154297 411.378906,143.886719 412.878906,144.332031 C414.378906,144.777344 415.761719,145 417.027344,145 L417.027344,145 L433.515625,145 Z M433.515625,135.859375 L417.097656,135.859375 C415.878906,135.859375 414.953125,135.542969 414.320312,134.910156 C413.6875,134.277344 413.371094,133.363281 413.371094,132.167969 L413.371094,132.167969 L413.371094,119.792969 C413.371094,118.597656 413.6875,117.689453 414.320312,117.068359 C414.953125,116.447266 415.878906,116.136719 417.097656,116.136719 L417.097656,116.136719 L433.515625,116.136719 C434.710938,116.136719 435.625,116.441406 436.257812,117.050781 C436.890625,117.660156 437.207031,118.597656 437.207031,119.863281 L437.207031,119.863281 L437.207031,132.167969 C437.207031,133.363281 436.902344,134.277344 436.292969,134.910156 C435.683594,135.542969 434.757812,135.859375 433.515625,135.859375 L433.515625,135.859375 Z M466.257812,145 L466.257812,116.136719 L482.253906,116.136719 C483.355469,116.136719 484.380859,116.318359 485.330078,116.681641 C486.279297,117.044922 487.105469,117.566406 487.808594,118.246094 C488.511719,118.925781 489.068359,119.740234 489.478516,120.689453 C489.888672,121.638672 490.09375,122.710938 490.09375,123.90625 L490.09375,123.90625 L490.09375,145 L499.234375,145 L499.234375,123.90625 C499.234375,121.84375 498.976562,119.992188 498.460938,118.351562 C497.945312,116.710938 497.248047,115.263672 496.369141,114.009766 C495.490234,112.755859 494.482422,111.689453 493.345703,110.810547 C492.208984,109.931641 491.013672,109.205078 489.759766,108.630859 C488.505859,108.056641 487.240234,107.640625 485.962891,107.382812 C484.685547,107.125 483.472656,106.996094 482.324219,106.996094 L482.324219,106.996094 L461.722656,106.996094 C461.089844,106.996094 460.492188,107.113281 459.929688,107.347656 C459.367188,107.582031 458.875,107.904297 458.453125,108.314453 C458.03125,108.724609 457.703125,109.205078 457.46875,109.755859 C457.234375,110.306641 457.117188,110.898438 457.117188,111.53125 L457.117188,111.53125 L457.117188,145 L466.257812,145 Z M538.550781,145 L538.550781,136.28125 L522.132812,136.28125 C521.007812,136.28125 520.064453,135.941406 519.302734,135.261719 C518.541016,134.582031 518.160156,133.632812 518.160156,132.414062 L518.160156,132.414062 L518.160156,119.652344 C518.160156,118.527344 518.5,117.583984 519.179688,116.822266 C519.859375,116.060547 520.820312,115.679688 522.0625,115.679688 L522.0625,115.679688 L538.550781,115.679688 C539.628906,115.679688 540.548828,116.019531 541.310547,116.699219 C542.072266,117.378906 542.453125,118.316406 542.453125,119.511719 C542.453125,120.636719 542.113281,121.580078 541.433594,122.341797 C540.753906,123.103516 539.792969,123.484375 538.550781,123.484375 L538.550781,123.484375 L522.0625,123.484375 L522.0625,132.167969 L538.550781,132.167969 C540.847656,132.167969 542.798828,131.746094 544.404297,130.902344 C546.009766,130.058594 547.310547,129.009766 548.306641,127.755859 C549.302734,126.501953 550.023438,125.142578 550.46875,123.677734 C550.914062,122.212891 551.136719,120.847656 551.136719,119.582031 C551.136719,117.285156 550.714844,115.333984 549.871094,113.728516 C549.027344,112.123047 547.978516,110.822266 546.724609,109.826172 C545.470703,108.830078 544.111328,108.109375 542.646484,107.664062 C541.181641,107.21875 539.816406,106.996094 538.550781,106.996094 L538.550781,106.996094 L522.0625,106.996094 C519.765625,106.996094 517.814453,107.417969 516.208984,108.261719 C514.603516,109.105469 513.302734,110.154297 512.306641,111.408203 C511.310547,112.662109 510.589844,114.021484 510.144531,115.486328 C509.699219,116.951172 509.476562,118.316406 509.476562,119.582031 L509.476562,119.582031 L509.476562,132.414062 C509.476562,134.710938 509.898438,136.662109 510.742188,138.267578 C511.585938,139.873047 512.634766,141.173828 513.888672,142.169922 C515.142578,143.166016 516.501953,143.886719 517.966797,144.332031 C519.431641,144.777344 520.796875,145 522.0625,145 L522.0625,145 L538.550781,145 Z M34.6445312,225 C37.6679688,225 40.46875,224.472656 43.046875,223.417969 C45.625,222.363281 47.8515625,220.904297 49.7265625,219.041016 C51.6015625,217.177734 53.0722656,214.957031 54.1386719,212.378906 C55.2050781,209.800781 55.7382812,206.976562 55.7382812,203.90625 L55.7382812,203.90625 L55.7382812,195.679688 C55.7382812,192.632812 55.2050781,189.814453 54.1386719,187.224609 C53.0722656,184.634766 51.6015625,182.408203 49.7265625,180.544922 C47.8515625,178.681641 45.625,177.222656 43.046875,176.167969 C40.46875,175.113281 37.6679688,174.585938 34.6445312,174.585938 L34.6445312,174.585938 L9.96484375,174.585938 C9.30859375,174.585938 8.69921875,174.703125 8.13671875,174.9375 C7.57421875,175.171875 7.08789062,175.5 6.67773438,175.921875 C6.26757812,176.34375 5.9453125,176.835938 5.7109375,177.398438 C5.4765625,177.960938 5.359375,178.558594 5.359375,179.191406 L5.359375,179.191406 L5.359375,220.394531 C5.359375,221.050781 5.4765625,221.660156 5.7109375,222.222656 C5.9453125,222.785156 6.26757812,223.271484 6.67773438,223.681641 C7.08789062,224.091797 7.57421875,224.414062 8.13671875,224.648438 C8.69921875,224.882812 9.30859375,225 9.96484375,225 L9.96484375,225 L34.6445312,225 Z M34.6445312,215.859375 L14.5,215.859375 L14.5,183.726562 L34.6445312,183.726562 C36.4257812,183.726562 38.0488281,184.013672 39.5136719,184.587891 C40.9785156,185.162109 42.2382812,185.970703 43.2929688,187.013672 C44.3476562,188.056641 45.1621094,189.316406 45.7363281,190.792969 C46.3105469,192.269531 46.5976562,193.898438 46.5976562,195.679688 L46.5976562,195.679688 L46.5976562,203.90625 C46.5976562,205.710938 46.3105469,207.345703 45.7363281,208.810547 C45.1621094,210.275391 44.3476562,211.529297 43.2929688,212.572266 C42.2382812,213.615234 40.9785156,214.423828 39.5136719,214.998047 C38.0488281,215.572266 36.4257812,215.859375 34.6445312,215.859375 L34.6445312,215.859375 Z M94.984375,225 L94.984375,216.28125 L78.5664062,216.28125 C77.4414062,216.28125 76.4980469,215.941406 75.7363281,215.261719 C74.9746094,214.582031 74.59375,213.632812 74.59375,212.414062 L74.59375,212.414062 L74.59375,199.652344 C74.59375,198.527344 74.9335938,197.583984 75.6132812,196.822266 C76.2929688,196.060547 77.2539062,195.679688 78.4960938,195.679688 L78.4960938,195.679688 L94.984375,195.679688 C96.0625,195.679688 96.9824219,196.019531 97.7441406,196.699219 C98.5058594,197.378906 98.8867188,198.316406 98.8867188,199.511719 C98.8867188,200.636719 98.546875,201.580078 97.8671875,202.341797 C97.1875,203.103516 96.2265625,203.484375 94.984375,203.484375 L94.984375,203.484375 L78.4960938,203.484375 L78.4960938,212.167969 L94.984375,212.167969 C97.28125,212.167969 99.2324219,211.746094 100.837891,210.902344 C102.443359,210.058594 103.744141,209.009766 104.740234,207.755859 C105.736328,206.501953 106.457031,205.142578 106.902344,203.677734 C107.347656,202.212891 107.570312,200.847656 107.570312,199.582031 C107.570312,197.285156 107.148438,195.333984 106.304688,193.728516 C105.460938,192.123047 104.412109,190.822266 103.158203,189.826172 C101.904297,188.830078 100.544922,188.109375 99.0800781,187.664062 C97.6152344,187.21875 96.25,186.996094 94.984375,186.996094 L94.984375,186.996094 L78.4960938,186.996094 C76.1992188,186.996094 74.2480469,187.417969 72.6425781,188.261719 C71.0371094,189.105469 69.7363281,190.154297 68.7402344,191.408203 C67.7441406,192.662109 67.0234375,194.021484 66.578125,195.486328 C66.1328125,196.951172 65.9101562,198.316406 65.9101562,199.582031 L65.9101562,199.582031 L65.9101562,212.414062 C65.9101562,214.710938 66.3320312,216.662109 67.1757812,218.267578 C68.0195312,219.873047 69.0683594,221.173828 70.3222656,222.169922 C71.5761719,223.166016 72.9355469,223.886719 74.4003906,224.332031 C75.8652344,224.777344 77.2304688,225 78.4960938,225 L78.4960938,225 L94.984375,225 Z M121.328125,225.070312 C125.007812,225.070312 128.423828,224.572266 131.576172,223.576172 C134.728516,222.580078 137.646484,221.208984 140.330078,219.462891 C143.013672,217.716797 145.462891,215.642578 147.677734,213.240234 C149.892578,210.837891 151.896484,208.224609 153.689453,205.400391 C155.482422,202.576172 157.070312,199.605469 158.453125,196.488281 C159.835938,193.371094 161.042969,190.207031 162.074219,186.996094 L162.074219,186.996094 L152.371094,186.996094 C151.949219,188.613281 151.310547,190.441406 150.455078,192.480469 C149.599609,194.519531 148.5625,196.599609 147.34375,198.720703 C146.125,200.841797 144.736328,202.910156 143.177734,204.925781 C141.619141,206.941406 139.925781,208.740234 138.097656,210.322266 C136.269531,211.904297 134.330078,213.175781 132.279297,214.136719 C130.228516,215.097656 128.089844,215.578125 125.863281,215.578125 L125.863281,215.578125 L125.863281,186.996094 L116.722656,186.996094 L116.722656,220.535156 C116.722656,221.167969 116.839844,221.759766 117.074219,222.310547 C117.308594,222.861328 117.636719,223.341797 118.058594,223.751953 C118.480469,224.162109 118.972656,224.484375 119.535156,224.71875 C120.097656,224.953125 120.695312,225.070312 121.328125,225.070312 Z M196.644531,225 L196.644531,216.28125 L180.226562,216.28125 C179.101562,216.28125 178.158203,215.941406 177.396484,215.261719 C176.634766,214.582031 176.253906,213.632812 176.253906,212.414062 L176.253906,212.414062 L176.253906,199.652344 C176.253906,198.527344 176.59375,197.583984 177.273438,196.822266 C177.953125,196.060547 178.914062,195.679688 180.15625,195.679688 L180.15625,195.679688 L196.644531,195.679688 C197.722656,195.679688 198.642578,196.019531 199.404297,196.699219 C200.166016,197.378906 200.546875,198.316406 200.546875,199.511719 C200.546875,200.636719 200.207031,201.580078 199.527344,202.341797 C198.847656,203.103516 197.886719,203.484375 196.644531,203.484375 L196.644531,203.484375 L180.15625,203.484375 L180.15625,212.167969 L196.644531,212.167969 C198.941406,212.167969 200.892578,211.746094 202.498047,210.902344 C204.103516,210.058594 205.404297,209.009766 206.400391,207.755859 C207.396484,206.501953 208.117188,205.142578 208.5625,203.677734 C209.007812,202.212891 209.230469,200.847656 209.230469,199.582031 C209.230469,197.285156 208.808594,195.333984 207.964844,193.728516 C207.121094,192.123047 206.072266,190.822266 204.818359,189.826172 C203.564453,188.830078 202.205078,188.109375 200.740234,187.664062 C199.275391,187.21875 197.910156,186.996094 196.644531,186.996094 L196.644531,186.996094 L180.15625,186.996094 C177.859375,186.996094 175.908203,187.417969 174.302734,188.261719 C172.697266,189.105469 171.396484,190.154297 170.400391,191.408203 C169.404297,192.662109 168.683594,194.021484 168.238281,195.486328 C167.792969,196.951172 167.570312,198.316406 167.570312,199.582031 L167.570312,199.582031 L167.570312,212.414062 C167.570312,214.710938 167.992188,216.662109 168.835938,218.267578 C169.679688,219.873047 170.728516,221.173828 171.982422,222.169922 C173.236328,223.166016 174.595703,223.886719 176.060547,224.332031 C177.525391,224.777344 178.890625,225 180.15625,225 L180.15625,225 L196.644531,225 Z M235.082031,225 L235.082031,215.859375 L231.003906,215.859375 C229.949219,215.859375 229.070312,215.525391 228.367188,214.857422 C227.664062,214.189453 227.3125,213.292969 227.3125,212.167969 L227.3125,212.167969 L227.3125,170.929688 L218.171875,170.929688 L218.171875,212.167969 C218.171875,214.535156 218.59375,216.533203 219.4375,218.162109 C220.28125,219.791016 221.347656,221.115234 222.636719,222.134766 C223.925781,223.154297 225.314453,223.886719 226.802734,224.332031 C228.291016,224.777344 229.691406,225 231.003906,225 L231.003906,225 L235.082031,225 Z M272.464844,225 C273.332031,225 274.251953,224.900391 275.224609,224.701172 C276.197266,224.501953 277.158203,224.191406 278.107422,223.769531 C279.056641,223.347656 279.964844,222.802734 280.832031,222.134766 C281.699219,221.466797 282.460938,220.658203 283.117188,219.708984 C283.773438,218.759766 284.300781,217.658203 284.699219,216.404297 C285.097656,215.150391 285.296875,213.738281 285.296875,212.167969 L285.296875,212.167969 L285.296875,199.792969 C285.296875,198.503906 285.068359,197.109375 284.611328,195.609375 C284.154297,194.109375 283.421875,192.720703 282.414062,191.443359 C281.40625,190.166016 280.082031,189.105469 278.441406,188.261719 C276.800781,187.417969 274.808594,186.996094 272.464844,186.996094 L272.464844,186.996094 L255.976562,186.996094 C254.710938,186.996094 253.328125,187.21875 251.828125,187.664062 C250.328125,188.109375 248.939453,188.841797 247.662109,189.861328 C246.384766,190.880859 245.318359,192.205078 244.462891,193.833984 C243.607422,195.462891 243.179688,197.449219 243.179688,199.792969 L243.179688,199.792969 L243.179688,212.167969 C243.179688,214.535156 243.607422,216.533203 244.462891,218.162109 C245.318359,219.791016 246.384766,221.115234 247.662109,222.134766 C248.939453,223.154297 250.328125,223.886719 251.828125,224.332031 C253.328125,224.777344 254.710938,225 255.976562,225 L255.976562,225 L272.464844,225 Z M272.464844,215.859375 L256.046875,215.859375 C254.828125,215.859375 253.902344,215.542969 253.269531,214.910156 C252.636719,214.277344 252.320312,213.363281 252.320312,212.167969 L252.320312,212.167969 L252.320312,199.792969 C252.320312,198.597656 252.636719,197.689453 253.269531,197.068359 C253.902344,196.447266 254.828125,196.136719 256.046875,196.136719 L256.046875,196.136719 L272.464844,196.136719 C273.660156,196.136719 274.574219,196.441406 275.207031,197.050781 C275.839844,197.660156 276.15625,198.597656 276.15625,199.863281 L276.15625,199.863281 L276.15625,212.167969 C276.15625,213.363281 275.851562,214.277344 275.242188,214.910156 C274.632812,215.542969 273.707031,215.859375 272.464844,215.859375 L272.464844,215.859375 Z M304.996094,236.882812 L304.996094,199.792969 C304.996094,198.597656 305.3125,197.689453 305.945312,197.068359 C306.578125,196.447266 307.515625,196.136719 308.757812,196.136719 L308.757812,196.136719 L325.175781,196.136719 C326.371094,196.136719 327.279297,196.441406 327.900391,197.050781 C328.521484,197.660156 328.832031,198.597656 328.832031,199.863281 L328.832031,199.863281 L328.832031,212.167969 C328.832031,213.363281 328.527344,214.277344 327.917969,214.910156 C327.308594,215.542969 326.394531,215.859375 325.175781,215.859375 L325.175781,215.859375 L308.6875,215.859375 L308.6875,225 L325.175781,225 C326.042969,225 326.957031,224.900391 327.917969,224.701172 C328.878906,224.501953 329.833984,224.191406 330.783203,223.769531 C331.732422,223.347656 332.640625,222.802734 333.507812,222.134766 C334.375,221.466797 335.136719,220.658203 335.792969,219.708984 C336.449219,218.759766 336.976562,217.658203 337.375,216.404297 C337.773438,215.150391 337.972656,213.738281 337.972656,212.167969 L337.972656,212.167969 L337.972656,199.792969 C337.972656,198.925781 337.873047,198.011719 337.673828,197.050781 C337.474609,196.089844 337.164062,195.134766 336.742188,194.185547 C336.320312,193.236328 335.775391,192.328125 335.107422,191.460938 C334.439453,190.59375 333.630859,189.832031 332.681641,189.175781 C331.732422,188.519531 330.636719,187.992188 329.394531,187.59375 C328.152344,187.195312 326.746094,186.996094 325.175781,186.996094 L325.175781,186.996094 L308.6875,186.996094 C307.84375,186.996094 306.935547,187.095703 305.962891,187.294922 C304.990234,187.494141 304.029297,187.804688 303.080078,188.226562 C302.130859,188.648438 301.222656,189.193359 300.355469,189.861328 C299.488281,190.529297 298.720703,191.337891 298.052734,192.287109 C297.384766,193.236328 296.851562,194.332031 296.453125,195.574219 C296.054688,196.816406 295.855469,198.222656 295.855469,199.792969 L295.855469,199.792969 L295.855469,236.882812 L304.996094,236.882812 Z M357.917969,225 L357.917969,196.136719 L369.800781,196.136719 C371.042969,196.136719 371.980469,196.447266 372.613281,197.068359 C373.246094,197.689453 373.5625,198.597656 373.5625,199.792969 L373.5625,199.792969 L373.5625,225 L382.703125,225 L382.703125,199.792969 C382.703125,198.480469 382.550781,197.261719 382.246094,196.136719 L382.246094,196.136719 L390.472656,196.136719 C391.714844,196.136719 392.634766,196.447266 393.232422,197.068359 C393.830078,197.689453 394.128906,198.597656 394.128906,199.792969 L394.128906,199.792969 L394.128906,225 L403.269531,225 L403.269531,199.792969 C403.269531,198.222656 403.070312,196.816406 402.671875,195.574219 C402.273438,194.332031 401.746094,193.236328 401.089844,192.287109 C400.433594,191.337891 399.671875,190.529297 398.804688,189.861328 C397.9375,189.193359 397.029297,188.648438 396.080078,188.226562 C395.130859,187.804688 394.175781,187.494141 393.214844,187.294922 C392.253906,187.095703 391.339844,186.996094 390.472656,186.996094 L390.472656,186.996094 L378.097656,186.996094 L378.097656,189.808594 C376.785156,188.824219 375.402344,188.109375 373.949219,187.664062 C372.496094,187.21875 371.136719,186.996094 369.871094,186.996094 L369.871094,186.996094 L353.382812,186.996094 C352.75,186.996094 352.152344,187.113281 351.589844,187.347656 C351.027344,187.582031 350.535156,187.904297 350.113281,188.314453 C349.691406,188.724609 349.363281,189.205078 349.128906,189.755859 C348.894531,190.306641 348.777344,190.898438 348.777344,191.53125 L348.777344,191.53125 L348.777344,225 L357.917969,225 Z M442.972656,225 L442.972656,216.28125 L426.554688,216.28125 C425.429688,216.28125 424.486328,215.941406 423.724609,215.261719 C422.962891,214.582031 422.582031,213.632812 422.582031,212.414062 L422.582031,212.414062 L422.582031,199.652344 C422.582031,198.527344 422.921875,197.583984 423.601562,196.822266 C424.28125,196.060547 425.242188,195.679688 426.484375,195.679688 L426.484375,195.679688 L442.972656,195.679688 C444.050781,195.679688 444.970703,196.019531 445.732422,196.699219 C446.494141,197.378906 446.875,198.316406 446.875,199.511719 C446.875,200.636719 446.535156,201.580078 445.855469,202.341797 C445.175781,203.103516 444.214844,203.484375 442.972656,203.484375 L442.972656,203.484375 L426.484375,203.484375 L426.484375,212.167969 L442.972656,212.167969 C445.269531,212.167969 447.220703,211.746094 448.826172,210.902344 C450.431641,210.058594 451.732422,209.009766 452.728516,207.755859 C453.724609,206.501953 454.445312,205.142578 454.890625,203.677734 C455.335938,202.212891 455.558594,200.847656 455.558594,199.582031 C455.558594,197.285156 455.136719,195.333984 454.292969,193.728516 C453.449219,192.123047 452.400391,190.822266 451.146484,189.826172 C449.892578,188.830078 448.533203,188.109375 447.068359,187.664062 C445.603516,187.21875 444.238281,186.996094 442.972656,186.996094 L442.972656,186.996094 L426.484375,186.996094 C424.1875,186.996094 422.236328,187.417969 420.630859,188.261719 C419.025391,189.105469 417.724609,190.154297 416.728516,191.408203 C415.732422,192.662109 415.011719,194.021484 414.566406,195.486328 C414.121094,196.951172 413.898438,198.316406 413.898438,199.582031 L413.898438,199.582031 L413.898438,212.414062 C413.898438,214.710938 414.320312,216.662109 415.164062,218.267578 C416.007812,219.873047 417.056641,221.173828 418.310547,222.169922 C419.564453,223.166016 420.923828,223.886719 422.388672,224.332031 C423.853516,224.777344 425.21875,225 426.484375,225 L426.484375,225 L442.972656,225 Z M473.851562,225 L473.851562,196.136719 L489.847656,196.136719 C490.949219,196.136719 491.974609,196.318359 492.923828,196.681641 C493.873047,197.044922 494.699219,197.566406 495.402344,198.246094 C496.105469,198.925781 496.662109,199.740234 497.072266,200.689453 C497.482422,201.638672 497.6875,202.710938 497.6875,203.90625 L497.6875,203.90625 L497.6875,225 L506.828125,225 L506.828125,203.90625 C506.828125,201.84375 506.570312,199.992188 506.054688,198.351562 C505.539062,196.710938 504.841797,195.263672 503.962891,194.009766 C503.083984,192.755859 502.076172,191.689453 500.939453,190.810547 C499.802734,189.931641 498.607422,189.205078 497.353516,188.630859 C496.099609,188.056641 494.833984,187.640625 493.556641,187.382812 C492.279297,187.125 491.066406,186.996094 489.917969,186.996094 L489.917969,186.996094 L469.316406,186.996094 C468.683594,186.996094 468.085938,187.113281 467.523438,187.347656 C466.960938,187.582031 466.46875,187.904297 466.046875,188.314453 C465.625,188.724609 465.296875,189.205078 465.0625,189.755859 C464.828125,190.306641 464.710938,190.898438 464.710938,191.53125 L464.710938,191.53125 L464.710938,225 L473.851562,225 Z M535.316406,225 L535.316406,196.136719 L551.277344,196.136719 L551.277344,186.996094 L535.316406,186.996094 L535.316406,174.585938 L526.070312,174.585938 L526.070312,186.996094 L514.1875,186.996094 L514.1875,196.136719 L526.070312,196.136719 L526.070312,225 L535.316406,225 Z" id="path-1"></path>
        <linearGradient x1="81.0535848%" y1="64.9317113%" x2="58.6393752%" y2="44.3262395%" id="linearGradient-3">
            <stop stop-color="#E56A00" stop-opacity="0.5" offset="0%"></stop>
            <stop stop-color="#000000" stop-opacity="0.5" offset="100%"></stop>
        </linearGradient>
        <rect id="path-4" x="-37.5" y="-74" width="624" height="341" rx="11"></rect>
    </defs>
    <g id="Logo" stroke="none" stroke-width="1" fill="none" fill-rule="evenodd">
        <g id="Group" transform="translate(-4.500000, -10.000000)">
            <mask id="mask-2" fill="white">
                <use xlink:href="#path-1"></use>
            </mask>
            <use id="MasteringPloneDevelopment" fill="#B620E0" fill-rule="nonzero" xlink:href="#path-1"></use>
            <g id="Rectangle" mask="url(#mask-2)">
                <use fill="#B620E0" xlink:href="#path-4"></use>
                <rect stroke="#979797" stroke-width="1" stroke-linejoin="square" fill="url(#linearGradient-3)" x="-37" y="-73.5" width="623" height="340" rx="11"></rect>
            </g>
        </g>
    </g>
</svg>