<?xml version="1.0" encoding="UTF-8"?>
<svg width="548px" height="227px" viewBox="0 0 548 227" version="1.1" xmlns="http://www.w3.org/2000/svg" xmlns:xlink="http://www.w3.org/1999/xlink">
    <title>Logo Mastering Plone Development@2x</title>
    <g id="Logo-Mastering-Plone-Development" stroke="none" stroke-width="1" fill="none" fill-rule="evenodd">
        <path d="M155.816406,55.703125 C156.636719,55.703125 157.404297,55.515625 158.119141,55.140625 C158.833984,54.765625 159.390625,54.2148438 159.789062,53.4882812 L159.789062,53.4882812 L175.996094,24.9765625 L175.996094,55 L185.207031,55 L185.207031,8.48828125 C185.207031,7.43359375 184.890625,6.49609375 184.257812,5.67578125 C183.625,4.85546875 182.816406,4.3046875 181.832031,4.0234375 C180.800781,3.765625 179.810547,3.82421875 178.861328,4.19921875 C177.912109,4.57421875 177.167969,5.20703125 176.628906,6.09765625 L176.628906,6.09765625 L155.816406,42.2734375 L135.003906,6.09765625 C134.746094,5.65234375 134.429688,5.27148438 134.054688,4.95507813 C133.679688,4.63867188 133.263672,4.39257813 132.806641,4.21679688 C132.349609,4.04101563 131.875,3.93554688 131.382812,3.90039063 C130.890625,3.86523438 130.398438,3.90625 129.90625,4.0234375 C128.898438,4.3046875 128.083984,4.85546875 127.462891,5.67578125 C126.841797,6.49609375 126.53125,7.43359375 126.53125,8.48828125 L126.53125,8.48828125 L126.53125,55 L135.671875,55 L135.671875,24.9765625 L151.949219,53.4882812 C152.347656,54.2148438 152.892578,54.765625 153.583984,55.140625 C154.275391,55.515625 155.019531,55.703125 155.816406,55.703125 Z M224.277344,55 C226.574219,55 228.525391,54.578125 230.130859,53.734375 C231.736328,52.890625 233.037109,51.8417969 234.033203,50.5878906 C235.029297,49.3339844 235.75,47.9746094 236.195312,46.5097656 C236.640625,45.0449219 236.863281,43.6796875 236.863281,42.4140625 L236.863281,42.4140625 L236.863281,29.5820312 C236.863281,27.2851562 236.441406,25.3339844 235.597656,23.7285156 C234.753906,22.1230469 233.705078,20.8222656 232.451172,19.8261719 C231.197266,18.8300781 229.837891,18.109375 228.373047,17.6640625 C226.908203,17.21875 225.542969,16.9960938 224.277344,16.9960938 L224.277344,16.9960938 L204.203125,16.9960938 L204.203125,25.6796875 L224.277344,25.6796875 C225.402344,25.6796875 226.333984,26.03125 227.072266,26.734375 C227.810547,27.4375 228.179688,28.3867188 228.179688,29.5820312 L228.179688,29.5820312 L228.179688,42.34375 C228.179688,43.46875 227.839844,44.40625 227.160156,45.15625 C226.480469,45.90625 225.519531,46.28125 224.277344,46.28125 L224.277344,46.28125 L207.859375,46.28125 C206.78125,46.28125 205.849609,45.9472656 205.064453,45.2792969 C204.279297,44.6113281 203.886719,43.6796875 203.886719,42.484375 C203.886719,41.359375 204.226562,40.4160156 204.90625,39.6542969 C205.585938,38.8925781 206.546875,38.5117188 207.789062,38.5117188 L207.789062,38.5117188 L224.277344,38.5117188 L224.277344,29.7929688 L207.789062,29.7929688 C205.492188,29.7929688 203.541016,30.2148438 201.935547,31.0585938 C200.330078,31.9023438 199.029297,32.9511719 198.033203,34.2050781 C197.037109,35.4589844 196.316406,36.8242188 195.871094,38.3007812 C195.425781,39.7773438 195.203125,41.1484375 195.203125,42.4140625 C195.203125,44.7109375 195.625,46.6621094 196.46875,48.2675781 C197.3125,49.8730469 198.361328,51.1738281 199.615234,52.1699219 C200.869141,53.1660156 202.228516,53.8867188 203.693359,54.3320312 C205.158203,54.7773438 206.523438,55 207.789062,55 L207.789062,55 L224.277344,55 Z M271.574219,55 C272.441406,55 273.361328,54.9003906 274.333984,54.7011719 C275.306641,54.5019531 276.267578,54.1914062 277.216797,53.7695312 C278.166016,53.3476562 279.074219,52.8027344 279.941406,52.1347656 C280.808594,51.4667969 281.570312,50.6582031 282.226562,49.7089844 C282.882812,48.7597656 283.410156,47.6582031 283.808594,46.4042969 C284.207031,45.1503906 284.40625,43.7382812 284.40625,42.1679688 C284.40625,40.8789062 284.177734,39.484375 283.720703,37.984375 C283.263672,36.484375 282.53125,35.0957031 281.523438,33.8183594 C280.515625,32.5410156 279.191406,31.4804688 277.550781,30.6367188 C275.910156,29.7929688 273.917969,29.3710938 271.574219,29.3710938 L271.574219,29.3710938 L257.40625,29.3710938 C257.195312,29.3710938 256.978516,29.3652344 256.755859,29.3535156 C256.533203,29.3417969 256.333984,29.2890625 256.158203,29.1953125 C255.982422,29.1015625 255.835938,28.9492188 255.71875,28.7382812 C255.601562,28.5273438 255.53125,28.234375 255.507812,27.859375 C255.507812,27.671875 255.519531,27.4785156 255.542969,27.2792969 C255.566406,27.0800781 255.642578,26.8925781 255.771484,26.7167969 C255.900391,26.5410156 256.099609,26.4003906 256.369141,26.2949219 C256.638672,26.1894531 257.007812,26.1367188 257.476562,26.1367188 L257.476562,26.1367188 L279.871094,26.1367188 L279.871094,16.9960938 L257.40625,16.9960938 C256.28125,16.9960938 255.074219,17.1894531 253.785156,17.5761719 C252.496094,17.9628906 251.300781,18.5898438 250.199219,19.4570312 C249.097656,20.3242188 248.183594,21.4550781 247.457031,22.8496094 C246.730469,24.2441406 246.367188,25.9609375 246.367188,28 C246.367188,29.0546875 246.560547,30.1914062 246.947266,31.4101562 C247.333984,32.6289062 247.966797,33.765625 248.845703,34.8203125 C249.724609,35.875 250.867188,36.7539062 252.273438,37.4570312 C253.679688,38.1601562 255.390625,38.5117188 257.40625,38.5117188 L257.40625,38.5117188 L271.574219,38.5117188 C273.917969,38.5117188 275.148438,39.7304688 275.265625,42.1679688 C275.265625,43.3632812 274.949219,44.2773438 274.316406,44.9101562 C273.683594,45.5429688 272.746094,45.859375 271.503906,45.859375 L271.503906,45.859375 L246.824219,45.859375 L246.824219,55 L271.574219,55 Z M311.769531,55 L311.769531,26.1367188 L327.730469,26.1367188 L327.730469,16.9960938 L311.769531,16.9960938 L311.769531,4.5859375 L302.523438,4.5859375 L302.523438,16.9960938 L290.640625,16.9960938 L290.640625,26.1367188 L302.523438,26.1367188 L302.523438,55 L311.769531,55 Z M364.902344,55 L364.902344,46.28125 L348.484375,46.28125 C347.359375,46.28125 346.416016,45.9414062 345.654297,45.2617188 C344.892578,44.5820312 344.511719,43.6328125 344.511719,42.4140625 L344.511719,42.4140625 L344.511719,29.6523438 C344.511719,28.5273438 344.851562,27.5839844 345.53125,26.8222656 C346.210938,26.0605469 347.171875,25.6796875 348.414062,25.6796875 L348.414062,25.6796875 L364.902344,25.6796875 C365.980469,25.6796875 366.900391,26.0195312 367.662109,26.6992188 C368.423828,27.3789062 368.804688,28.3164062 368.804688,29.5117188 C368.804688,30.6367188 368.464844,31.5800781 367.785156,32.3417969 C367.105469,33.1035156 366.144531,33.484375 364.902344,33.484375 L364.902344,33.484375 L348.414062,33.484375 L348.414062,42.1679688 L364.902344,42.1679688 C367.199219,42.1679688 369.150391,41.7460938 370.755859,40.9023438 C372.361328,40.0585938 373.662109,39.0097656 374.658203,37.7558594 C375.654297,36.5019531 376.375,35.1425781 376.820312,33.6777344 C377.265625,32.2128906 377.488281,30.8476562 377.488281,29.5820312 C377.488281,27.2851562 377.066406,25.3339844 376.222656,23.7285156 C375.378906,22.1230469 374.330078,20.8222656 373.076172,19.8261719 C371.822266,18.8300781 370.462891,18.109375 368.998047,17.6640625 C367.533203,17.21875 366.167969,16.9960938 364.902344,16.9960938 L364.902344,16.9960938 L348.414062,16.9960938 C346.117188,16.9960938 344.166016,17.4179688 342.560547,18.2617188 C340.955078,19.1054688 339.654297,20.1542969 338.658203,21.4082031 C337.662109,22.6621094 336.941406,24.0214844 336.496094,25.4863281 C336.050781,26.9511719 335.828125,28.3164062 335.828125,29.5820312 L335.828125,29.5820312 L335.828125,42.4140625 C335.828125,44.7109375 336.25,46.6621094 337.09375,48.2675781 C337.9375,49.8730469 338.986328,51.1738281 340.240234,52.1699219 C341.494141,53.1660156 342.853516,53.8867188 344.318359,54.3320312 C345.783203,54.7773438 347.148438,55 348.414062,55 L348.414062,55 L364.902344,55 Z M395.570312,55 L395.570312,29.7929688 C395.570312,28.5976562 395.886719,27.6894531 396.519531,27.0683594 C397.152344,26.4472656 398.089844,26.1367188 399.332031,26.1367188 L399.332031,26.1367188 L419.898438,26.1367188 L419.898438,16.9960938 L399.261719,16.9960938 C398.417969,16.9960938 397.509766,17.0957031 396.537109,17.2949219 C395.564453,17.4941406 394.603516,17.8046875 393.654297,18.2265625 C392.705078,18.6484375 391.796875,19.1933594 390.929688,19.8613281 C390.0625,20.5292969 389.294922,21.3378906 388.626953,22.2871094 C387.958984,23.2363281 387.425781,24.3320312 387.027344,25.5742188 C386.628906,26.8164062 386.429688,28.2226562 386.429688,29.7929688 L386.429688,29.7929688 L386.429688,55 L395.570312,55 Z M438.191406,9.19140625 L438.191406,0.9296875 L429.050781,0.9296875 L429.050781,9.19140625 L438.191406,9.19140625 Z M438.191406,55 L438.191406,16.9960938 L429.050781,16.9960938 L429.050781,55 L438.191406,55 Z M459.085938,55 L459.085938,26.1367188 L475.082031,26.1367188 C476.183594,26.1367188 477.208984,26.3183594 478.158203,26.6816406 C479.107422,27.0449219 479.933594,27.5664062 480.636719,28.2460938 C481.339844,28.9257812 481.896484,29.7402344 482.306641,30.6894531 C482.716797,31.6386719 482.921875,32.7109375 482.921875,33.90625 L482.921875,33.90625 L482.921875,55 L492.0625,55 L492.0625,33.90625 C492.0625,31.84375 491.804688,29.9921875 491.289062,28.3515625 C490.773438,26.7109375 490.076172,25.2636719 489.197266,24.0097656 C488.318359,22.7558594 487.310547,21.6894531 486.173828,20.8105469 C485.037109,19.9316406 483.841797,19.2050781 482.587891,18.6308594 C481.333984,18.0566406 480.068359,17.640625 478.791016,17.3828125 C477.513672,17.125 476.300781,16.9960938 475.152344,16.9960938 L475.152344,16.9960938 L454.550781,16.9960938 C453.917969,16.9960938 453.320312,17.1132812 452.757812,17.3476562 C452.195312,17.5820312 451.703125,17.9042969 451.28125,18.3144531 C450.859375,18.7246094 450.53125,19.2050781 450.296875,19.7558594 C450.0625,20.3066406 449.945312,20.8984375 449.945312,21.53125 L449.945312,21.53125 L449.945312,55 L459.085938,55 Z M531.589844,71.4882812 C532.457031,71.4882812 533.376953,71.3886719 534.349609,71.1894531 C535.322266,70.9902344 536.283203,70.6796875 537.232422,70.2578125 C538.181641,69.8359375 539.089844,69.2910156 539.957031,68.6230469 C540.824219,67.9550781 541.585938,67.1464844 542.242188,66.1972656 C542.898438,65.2480469 543.425781,64.1464844 543.824219,62.8925781 C544.222656,61.6386719 544.421875,60.2265625 544.421875,58.65625 L544.421875,58.65625 L544.421875,29.7929688 C544.421875,28.2226562 544.222656,26.8164062 543.824219,25.5742188 C543.425781,24.3320312 542.898438,23.2363281 542.242188,22.2871094 C541.585938,21.3378906 540.824219,20.5292969 539.957031,19.8613281 C539.089844,19.1933594 538.181641,18.6484375 537.232422,18.2265625 C536.283203,17.8046875 535.322266,17.4941406 534.349609,17.2949219 C533.376953,17.0957031 532.457031,16.9960938 531.589844,16.9960938 L531.589844,16.9960938 L515.101562,16.9960938 C513.53125,16.9960938 512.125,17.1953125 510.882812,17.59375 C509.640625,17.9921875 508.544922,18.5195312 507.595703,19.1757812 C506.646484,19.8320312 505.837891,20.59375 505.169922,21.4609375 C504.501953,22.328125 503.957031,23.2363281 503.535156,24.1855469 C503.113281,25.1347656 502.802734,26.0898438 502.603516,27.0507812 C502.404297,28.0117188 502.304688,28.9257812 502.304688,29.7929688 L502.304688,29.7929688 L502.304688,42.1679688 C502.304688,43.7382812 502.503906,45.1503906 502.902344,46.4042969 C503.300781,47.6582031 503.828125,48.7597656 504.484375,49.7089844 C505.140625,50.6582031 505.902344,51.4667969 506.769531,52.1347656 C507.636719,52.8027344 508.544922,53.3476562 509.494141,53.7695312 C510.443359,54.1914062 511.398438,54.5019531 512.359375,54.7011719 C513.320312,54.9003906 514.234375,55 515.101562,55 L515.101562,55 L531.589844,55 L531.589844,45.859375 L515.171875,45.859375 C513.953125,45.859375 513.027344,45.5429688 512.394531,44.9101562 C511.761719,44.2773438 511.445312,43.3632812 511.445312,42.1679688 L511.445312,42.1679688 L511.445312,29.7929688 C511.445312,28.7382812 511.773438,27.8652344 512.429688,27.1738281 C513.085938,26.4824219 513.976562,26.1367188 515.101562,26.1367188 L515.101562,26.1367188 L531.589844,26.1367188 C532.832031,26.1367188 533.757812,26.4472656 534.367188,27.0683594 C534.976562,27.6894531 535.28125,28.5976562 535.28125,29.7929688 L535.28125,29.7929688 L535.28125,58.65625 C535.28125,59.8515625 534.976562,60.765625 534.367188,61.3984375 C533.757812,62.03125 532.832031,62.3476562 531.589844,62.3476562 L531.589844,62.3476562 L515.101562,62.3476562 L515.101562,71.4882812 L531.589844,71.4882812 Z M323.910156,135 L323.910156,97.4179688 C323.910156,96.2226562 324.226562,95.3085938 324.859375,94.6757812 C325.492188,94.0429688 326.417969,93.7265625 327.636719,93.7265625 L327.636719,93.7265625 L348.238281,93.7265625 C349.433594,93.7265625 350.488281,93.9199219 351.402344,94.3066406 C352.316406,94.6933594 353.095703,95.2265625 353.740234,95.90625 C354.384766,96.5859375 354.894531,97.40625 355.269531,98.3671875 C355.644531,99.328125 355.890625,100.382812 356.007812,101.53125 L356.007812,101.53125 L356.007812,105.679688 C356.007812,106.851562 355.820312,107.900391 355.445312,108.826172 C355.070312,109.751953 354.542969,110.542969 353.863281,111.199219 C353.183594,111.855469 352.369141,112.376953 351.419922,112.763672 C350.470703,113.150391 349.410156,113.390625 348.238281,113.484375 L348.238281,113.484375 L327.566406,113.484375 L327.566406,122.625 L348.238281,122.625 C349.363281,122.625 350.564453,122.496094 351.841797,122.238281 C353.119141,121.980469 354.384766,121.570312 355.638672,121.007812 C356.892578,120.445312 358.09375,119.71875 359.242188,118.828125 C360.390625,117.9375 361.404297,116.865234 362.283203,115.611328 C363.162109,114.357422 363.859375,112.910156 364.375,111.269531 C364.890625,109.628906 365.148438,107.765625 365.148438,105.679688 L365.148438,105.679688 L365.148438,101.53125 C365.148438,100.40625 365.019531,99.2050781 364.761719,97.9277344 C364.503906,96.6503906 364.087891,95.3847656 363.513672,94.1308594 C362.939453,92.8769531 362.212891,91.6757812 361.333984,90.5273438 C360.455078,89.3789062 359.388672,88.3652344 358.134766,87.4863281 C356.880859,86.6074219 355.433594,85.9042969 353.792969,85.3769531 C352.152344,84.8496094 350.300781,84.5859375 348.238281,84.5859375 L348.238281,84.5859375 L327.566406,84.5859375 C326.300781,84.5859375 324.917969,84.8144531 323.417969,85.2714844 C321.917969,85.7285156 320.529297,86.4609375 319.251953,87.46875 C317.974609,88.4765625 316.908203,89.8007812 316.052734,91.4414062 C315.197266,93.0820312 314.769531,95.0742188 314.769531,97.4179688 L314.769531,97.4179688 L314.769531,135 L323.910156,135 Z M391.632812,135 L391.632812,125.859375 L387.554688,125.859375 C386.5,125.859375 385.621094,125.525391 384.917969,124.857422 C384.214844,124.189453 383.863281,123.292969 383.863281,122.167969 L383.863281,122.167969 L383.863281,80.9296875 L374.722656,80.9296875 L374.722656,122.167969 C374.722656,124.535156 375.144531,126.533203 375.988281,128.162109 C376.832031,129.791016 377.898438,131.115234 379.1875,132.134766 C380.476562,133.154297 381.865234,133.886719 383.353516,134.332031 C384.841797,134.777344 386.242188,135 387.554688,135 L387.554688,135 L391.632812,135 Z M429.015625,135 C429.882812,135 430.802734,134.900391 431.775391,134.701172 C432.748047,134.501953 433.708984,134.191406 434.658203,133.769531 C435.607422,133.347656 436.515625,132.802734 437.382812,132.134766 C438.25,131.466797 439.011719,130.658203 439.667969,129.708984 C440.324219,128.759766 440.851562,127.658203 441.25,126.404297 C441.648438,125.150391 441.847656,123.738281 441.847656,122.167969 L441.847656,122.167969 L441.847656,109.792969 C441.847656,108.503906 441.619141,107.109375 441.162109,105.609375 C440.705078,104.109375 439.972656,102.720703 438.964844,101.443359 C437.957031,100.166016 436.632812,99.1054688 434.992188,98.2617188 C433.351562,97.4179688 431.359375,96.9960938 429.015625,96.9960938 L429.015625,96.9960938 L412.527344,96.9960938 C411.261719,96.9960938 409.878906,97.21875 408.378906,97.6640625 C406.878906,98.109375 405.490234,98.8417969 404.212891,99.8613281 C402.935547,100.880859 401.869141,102.205078 401.013672,103.833984 C400.158203,105.462891 399.730469,107.449219 399.730469,109.792969 L399.730469,109.792969 L399.730469,122.167969 C399.730469,124.535156 400.158203,126.533203 401.013672,128.162109 C401.869141,129.791016 402.935547,131.115234 404.212891,132.134766 C405.490234,133.154297 406.878906,133.886719 408.378906,134.332031 C409.878906,134.777344 411.261719,135 412.527344,135 L412.527344,135 L429.015625,135 Z M429.015625,125.859375 L412.597656,125.859375 C411.378906,125.859375 410.453125,125.542969 409.820312,124.910156 C409.1875,124.277344 408.871094,123.363281 408.871094,122.167969 L408.871094,122.167969 L408.871094,109.792969 C408.871094,108.597656 409.1875,107.689453 409.820312,107.068359 C410.453125,106.447266 411.378906,106.136719 412.597656,106.136719 L412.597656,106.136719 L429.015625,106.136719 C430.210938,106.136719 431.125,106.441406 431.757812,107.050781 C432.390625,107.660156 432.707031,108.597656 432.707031,109.863281 L432.707031,109.863281 L432.707031,122.167969 C432.707031,123.363281 432.402344,124.277344 431.792969,124.910156 C431.183594,125.542969 430.257812,125.859375 429.015625,125.859375 L429.015625,125.859375 Z M461.757812,135 L461.757812,106.136719 L477.753906,106.136719 C478.855469,106.136719 479.880859,106.318359 480.830078,106.681641 C481.779297,107.044922 482.605469,107.566406 483.308594,108.246094 C484.011719,108.925781 484.568359,109.740234 484.978516,110.689453 C485.388672,111.638672 485.59375,112.710938 485.59375,113.90625 L485.59375,113.90625 L485.59375,135 L494.734375,135 L494.734375,113.90625 C494.734375,111.84375 494.476562,109.992188 493.960938,108.351562 C493.445312,106.710938 492.748047,105.263672 491.869141,104.009766 C490.990234,102.755859 489.982422,101.689453 488.845703,100.810547 C487.708984,99.9316406 486.513672,99.2050781 485.259766,98.6308594 C484.005859,98.0566406 482.740234,97.640625 481.462891,97.3828125 C480.185547,97.125 478.972656,96.9960938 477.824219,96.9960938 L477.824219,96.9960938 L457.222656,96.9960938 C456.589844,96.9960938 455.992188,97.1132812 455.429688,97.3476562 C454.867188,97.5820312 454.375,97.9042969 453.953125,98.3144531 C453.53125,98.7246094 453.203125,99.2050781 452.96875,99.7558594 C452.734375,100.306641 452.617188,100.898438 452.617188,101.53125 L452.617188,101.53125 L452.617188,135 L461.757812,135 Z M534.050781,135 L534.050781,126.28125 L517.632812,126.28125 C516.507812,126.28125 515.564453,125.941406 514.802734,125.261719 C514.041016,124.582031 513.660156,123.632812 513.660156,122.414062 L513.660156,122.414062 L513.660156,109.652344 C513.660156,108.527344 514,107.583984 514.679688,106.822266 C515.359375,106.060547 516.320312,105.679688 517.5625,105.679688 L517.5625,105.679688 L534.050781,105.679688 C535.128906,105.679688 536.048828,106.019531 536.810547,106.699219 C537.572266,107.378906 537.953125,108.316406 537.953125,109.511719 C537.953125,110.636719 537.613281,111.580078 536.933594,112.341797 C536.253906,113.103516 535.292969,113.484375 534.050781,113.484375 L534.050781,113.484375 L517.5625,113.484375 L517.5625,122.167969 L534.050781,122.167969 C536.347656,122.167969 538.298828,121.746094 539.904297,120.902344 C541.509766,120.058594 542.810547,119.009766 543.806641,117.755859 C544.802734,116.501953 545.523438,115.142578 545.96875,113.677734 C546.414062,112.212891 546.636719,110.847656 546.636719,109.582031 C546.636719,107.285156 546.214844,105.333984 545.371094,103.728516 C544.527344,102.123047 543.478516,100.822266 542.224609,99.8261719 C540.970703,98.8300781 539.611328,98.109375 538.146484,97.6640625 C536.681641,97.21875 535.316406,96.9960938 534.050781,96.9960938 L534.050781,96.9960938 L517.5625,96.9960938 C515.265625,96.9960938 513.314453,97.4179688 511.708984,98.2617188 C510.103516,99.1054688 508.802734,100.154297 507.806641,101.408203 C506.810547,102.662109 506.089844,104.021484 505.644531,105.486328 C505.199219,106.951172 504.976562,108.316406 504.976562,109.582031 L504.976562,109.582031 L504.976562,122.414062 C504.976562,124.710938 505.398438,126.662109 506.242188,128.267578 C507.085938,129.873047 508.134766,131.173828 509.388672,132.169922 C510.642578,133.166016 512.001953,133.886719 513.466797,134.332031 C514.931641,134.777344 516.296875,135 517.5625,135 L517.5625,135 L534.050781,135 Z M30.1445312,215 C33.1679688,215 35.96875,214.472656 38.546875,213.417969 C41.125,212.363281 43.3515625,210.904297 45.2265625,209.041016 C47.1015625,207.177734 48.5722656,204.957031 49.6386719,202.378906 C50.7050781,199.800781 51.2382812,196.976562 51.2382812,193.90625 L51.2382812,193.90625 L51.2382812,185.679688 C51.2382812,182.632812 50.7050781,179.814453 49.6386719,177.224609 C48.5722656,174.634766 47.1015625,172.408203 45.2265625,170.544922 C43.3515625,168.681641 41.125,167.222656 38.546875,166.167969 C35.96875,165.113281 33.1679688,164.585938 30.1445312,164.585938 L30.1445312,164.585938 L5.46484375,164.585938 C4.80859375,164.585938 4.19921875,164.703125 3.63671875,164.9375 C3.07421875,165.171875 2.58789062,165.5 2.17773438,165.921875 C1.76757812,166.34375 1.4453125,166.835938 1.2109375,167.398438 C0.9765625,167.960938 0.859375,168.558594 0.859375,169.191406 L0.859375,169.191406 L0.859375,210.394531 C0.859375,211.050781 0.9765625,211.660156 1.2109375,212.222656 C1.4453125,212.785156 1.76757812,213.271484 2.17773438,213.681641 C2.58789062,214.091797 3.07421875,214.414062 3.63671875,214.648438 C4.19921875,214.882812 4.80859375,215 5.46484375,215 L5.46484375,215 L30.1445312,215 Z M30.1445312,205.859375 L10,205.859375 L10,173.726562 L30.1445312,173.726562 C31.9257812,173.726562 33.5488281,174.013672 35.0136719,174.587891 C36.4785156,175.162109 37.7382812,175.970703 38.7929688,177.013672 C39.8476562,178.056641 40.6621094,179.316406 41.2363281,180.792969 C41.8105469,182.269531 42.0976562,183.898438 42.0976562,185.679688 L42.0976562,185.679688 L42.0976562,193.90625 C42.0976562,195.710938 41.8105469,197.345703 41.2363281,198.810547 C40.6621094,200.275391 39.8476562,201.529297 38.7929688,202.572266 C37.7382812,203.615234 36.4785156,204.423828 35.0136719,204.998047 C33.5488281,205.572266 31.9257812,205.859375 30.1445312,205.859375 L30.1445312,205.859375 Z M90.484375,215 L90.484375,206.28125 L74.0664062,206.28125 C72.9414062,206.28125 71.9980469,205.941406 71.2363281,205.261719 C70.4746094,204.582031 70.09375,203.632812 70.09375,202.414062 L70.09375,202.414062 L70.09375,189.652344 C70.09375,188.527344 70.4335938,187.583984 71.1132812,186.822266 C71.7929688,186.060547 72.7539062,185.679688 73.9960938,185.679688 L73.9960938,185.679688 L90.484375,185.679688 C91.5625,185.679688 92.4824219,186.019531 93.2441406,186.699219 C94.0058594,187.378906 94.3867188,188.316406 94.3867188,189.511719 C94.3867188,190.636719 94.046875,191.580078 93.3671875,192.341797 C92.6875,193.103516 91.7265625,193.484375 90.484375,193.484375 L90.484375,193.484375 L73.9960938,193.484375 L73.9960938,202.167969 L90.484375,202.167969 C92.78125,202.167969 94.7324219,201.746094 96.3378906,200.902344 C97.9433594,200.058594 99.2441406,199.009766 100.240234,197.755859 C101.236328,196.501953 101.957031,195.142578 102.402344,193.677734 C102.847656,192.212891 103.070312,190.847656 103.070312,189.582031 C103.070312,187.285156 102.648438,185.333984 101.804688,183.728516 C100.960938,182.123047 99.9121094,180.822266 98.6582031,179.826172 C97.4042969,178.830078 96.0449219,178.109375 94.5800781,177.664062 C93.1152344,177.21875 91.75,176.996094 90.484375,176.996094 L90.484375,176.996094 L73.9960938,176.996094 C71.6992188,176.996094 69.7480469,177.417969 68.1425781,178.261719 C66.5371094,179.105469 65.2363281,180.154297 64.2402344,181.408203 C63.2441406,182.662109 62.5234375,184.021484 62.078125,185.486328 C61.6328125,186.951172 61.4101562,188.316406 61.4101562,189.582031 L61.4101562,189.582031 L61.4101562,202.414062 C61.4101562,204.710938 61.8320312,206.662109 62.6757812,208.267578 C63.5195312,209.873047 64.5683594,211.173828 65.8222656,212.169922 C67.0761719,213.166016 68.4355469,213.886719 69.9003906,214.332031 C71.3652344,214.777344 72.7304688,215 73.9960938,215 L73.9960938,215 L90.484375,215 Z M116.828125,215.070312 C120.507812,215.070312 123.923828,214.572266 127.076172,213.576172 C130.228516,212.580078 133.146484,211.208984 135.830078,209.462891 C138.513672,207.716797 140.962891,205.642578 143.177734,203.240234 C145.392578,200.837891 147.396484,198.224609 149.189453,195.400391 C150.982422,192.576172 152.570312,189.605469 153.953125,186.488281 C155.335938,183.371094 156.542969,180.207031 157.574219,176.996094 L157.574219,176.996094 L147.871094,176.996094 C147.449219,178.613281 146.810547,180.441406 145.955078,182.480469 C145.099609,184.519531 144.0625,186.599609 142.84375,188.720703 C141.625,190.841797 140.236328,192.910156 138.677734,194.925781 C137.119141,196.941406 135.425781,198.740234 133.597656,200.322266 C131.769531,201.904297 129.830078,203.175781 127.779297,204.136719 C125.728516,205.097656 123.589844,205.578125 121.363281,205.578125 L121.363281,205.578125 L121.363281,176.996094 L112.222656,176.996094 L112.222656,210.535156 C112.222656,211.167969 112.339844,211.759766 112.574219,212.310547 C112.808594,212.861328 113.136719,213.341797 113.558594,213.751953 C113.980469,214.162109 114.472656,214.484375 115.035156,214.71875 C115.597656,214.953125 116.195312,215.070312 116.828125,215.070312 Z M192.144531,215 L192.144531,206.28125 L175.726562,206.28125 C174.601562,206.28125 173.658203,205.941406 172.896484,205.261719 C172.134766,204.582031 171.753906,203.632812 171.753906,202.414062 L171.753906,202.414062 L171.753906,189.652344 C171.753906,188.527344 172.09375,187.583984 172.773438,186.822266 C173.453125,186.060547 174.414062,185.679688 175.65625,185.679688 L175.65625,185.679688 L192.144531,185.679688 C193.222656,185.679688 194.142578,186.019531 194.904297,186.699219 C195.666016,187.378906 196.046875,188.316406 196.046875,189.511719 C196.046875,190.636719 195.707031,191.580078 195.027344,192.341797 C194.347656,193.103516 193.386719,193.484375 192.144531,193.484375 L192.144531,193.484375 L175.65625,193.484375 L175.65625,202.167969 L192.144531,202.167969 C194.441406,202.167969 196.392578,201.746094 197.998047,200.902344 C199.603516,200.058594 200.904297,199.009766 201.900391,197.755859 C202.896484,196.501953 203.617188,195.142578 204.0625,193.677734 C204.507812,192.212891 204.730469,190.847656 204.730469,189.582031 C204.730469,187.285156 204.308594,185.333984 203.464844,183.728516 C202.621094,182.123047 201.572266,180.822266 200.318359,179.826172 C199.064453,178.830078 197.705078,178.109375 196.240234,177.664062 C194.775391,177.21875 193.410156,176.996094 192.144531,176.996094 L192.144531,176.996094 L175.65625,176.996094 C173.359375,176.996094 171.408203,177.417969 169.802734,178.261719 C168.197266,179.105469 166.896484,180.154297 165.900391,181.408203 C164.904297,182.662109 164.183594,184.021484 163.738281,185.486328 C163.292969,186.951172 163.070312,188.316406 163.070312,189.582031 L163.070312,189.582031 L163.070312,202.414062 C163.070312,204.710938 163.492188,206.662109 164.335938,208.267578 C165.179688,209.873047 166.228516,211.173828 167.482422,212.169922 C168.736328,213.166016 170.095703,213.886719 171.560547,214.332031 C173.025391,214.777344 174.390625,215 175.65625,215 L175.65625,215 L192.144531,215 Z M230.582031,215 L230.582031,205.859375 L226.503906,205.859375 C225.449219,205.859375 224.570312,205.525391 223.867188,204.857422 C223.164062,204.189453 222.8125,203.292969 222.8125,202.167969 L222.8125,202.167969 L222.8125,160.929688 L213.671875,160.929688 L213.671875,202.167969 C213.671875,204.535156 214.09375,206.533203 214.9375,208.162109 C215.78125,209.791016 216.847656,211.115234 218.136719,212.134766 C219.425781,213.154297 220.814453,213.886719 222.302734,214.332031 C223.791016,214.777344 225.191406,215 226.503906,215 L226.503906,215 L230.582031,215 Z M267.964844,215 C268.832031,215 269.751953,214.900391 270.724609,214.701172 C271.697266,214.501953 272.658203,214.191406 273.607422,213.769531 C274.556641,213.347656 275.464844,212.802734 276.332031,212.134766 C277.199219,211.466797 277.960938,210.658203 278.617188,209.708984 C279.273438,208.759766 279.800781,207.658203 280.199219,206.404297 C280.597656,205.150391 280.796875,203.738281 280.796875,202.167969 L280.796875,202.167969 L280.796875,189.792969 C280.796875,188.503906 280.568359,187.109375 280.111328,185.609375 C279.654297,184.109375 278.921875,182.720703 277.914062,181.443359 C276.90625,180.166016 275.582031,179.105469 273.941406,178.261719 C272.300781,177.417969 270.308594,176.996094 267.964844,176.996094 L267.964844,176.996094 L251.476562,176.996094 C250.210938,176.996094 248.828125,177.21875 247.328125,177.664062 C245.828125,178.109375 244.439453,178.841797 243.162109,179.861328 C241.884766,180.880859 240.818359,182.205078 239.962891,183.833984 C239.107422,185.462891 238.679688,187.449219 238.679688,189.792969 L238.679688,189.792969 L238.679688,202.167969 C238.679688,204.535156 239.107422,206.533203 239.962891,208.162109 C240.818359,209.791016 241.884766,211.115234 243.162109,212.134766 C244.439453,213.154297 245.828125,213.886719 247.328125,214.332031 C248.828125,214.777344 250.210938,215 251.476562,215 L251.476562,215 L267.964844,215 Z M267.964844,205.859375 L251.546875,205.859375 C250.328125,205.859375 249.402344,205.542969 248.769531,204.910156 C248.136719,204.277344 247.820312,203.363281 247.820312,202.167969 L247.820312,202.167969 L247.820312,189.792969 C247.820312,188.597656 248.136719,187.689453 248.769531,187.068359 C249.402344,186.447266 250.328125,186.136719 251.546875,186.136719 L251.546875,186.136719 L267.964844,186.136719 C269.160156,186.136719 270.074219,186.441406 270.707031,187.050781 C271.339844,187.660156 271.65625,188.597656 271.65625,189.863281 L271.65625,189.863281 L271.65625,202.167969 C271.65625,203.363281 271.351562,204.277344 270.742188,204.910156 C270.132812,205.542969 269.207031,205.859375 267.964844,205.859375 L267.964844,205.859375 Z M300.496094,226.882812 L300.496094,189.792969 C300.496094,188.597656 300.8125,187.689453 301.445312,187.068359 C302.078125,186.447266 303.015625,186.136719 304.257812,186.136719 L304.257812,186.136719 L320.675781,186.136719 C321.871094,186.136719 322.779297,186.441406 323.400391,187.050781 C324.021484,187.660156 324.332031,188.597656 324.332031,189.863281 L324.332031,189.863281 L324.332031,202.167969 C324.332031,203.363281 324.027344,204.277344 323.417969,204.910156 C322.808594,205.542969 321.894531,205.859375 320.675781,205.859375 L320.675781,205.859375 L304.1875,205.859375 L304.1875,215 L320.675781,215 C321.542969,215 322.457031,214.900391 323.417969,214.701172 C324.378906,214.501953 325.333984,214.191406 326.283203,213.769531 C327.232422,213.347656 328.140625,212.802734 329.007812,212.134766 C329.875,211.466797 330.636719,210.658203 331.292969,209.708984 C331.949219,208.759766 332.476562,207.658203 332.875,206.404297 C333.273438,205.150391 333.472656,203.738281 333.472656,202.167969 L333.472656,202.167969 L333.472656,189.792969 C333.472656,188.925781 333.373047,188.011719 333.173828,187.050781 C332.974609,186.089844 332.664062,185.134766 332.242188,184.185547 C331.820312,183.236328 331.275391,182.328125 330.607422,181.460938 C329.939453,180.59375 329.130859,179.832031 328.181641,179.175781 C327.232422,178.519531 326.136719,177.992188 324.894531,177.59375 C323.652344,177.195312 322.246094,176.996094 320.675781,176.996094 L320.675781,176.996094 L304.1875,176.996094 C303.34375,176.996094 302.435547,177.095703 301.462891,177.294922 C300.490234,177.494141 299.529297,177.804688 298.580078,178.226562 C297.630859,178.648438 296.722656,179.193359 295.855469,179.861328 C294.988281,180.529297 294.220703,181.337891 293.552734,182.287109 C292.884766,183.236328 292.351562,184.332031 291.953125,185.574219 C291.554688,186.816406 291.355469,188.222656 291.355469,189.792969 L291.355469,189.792969 L291.355469,226.882812 L300.496094,226.882812 Z M353.417969,215 L353.417969,186.136719 L365.300781,186.136719 C366.542969,186.136719 367.480469,186.447266 368.113281,187.068359 C368.746094,187.689453 369.0625,188.597656 369.0625,189.792969 L369.0625,189.792969 L369.0625,215 L378.203125,215 L378.203125,189.792969 C378.203125,188.480469 378.050781,187.261719 377.746094,186.136719 L377.746094,186.136719 L385.972656,186.136719 C387.214844,186.136719 388.134766,186.447266 388.732422,187.068359 C389.330078,187.689453 389.628906,188.597656 389.628906,189.792969 L389.628906,189.792969 L389.628906,215 L398.769531,215 L398.769531,189.792969 C398.769531,188.222656 398.570312,186.816406 398.171875,185.574219 C397.773438,184.332031 397.246094,183.236328 396.589844,182.287109 C395.933594,181.337891 395.171875,180.529297 394.304688,179.861328 C393.4375,179.193359 392.529297,178.648438 391.580078,178.226562 C390.630859,177.804688 389.675781,177.494141 388.714844,177.294922 C387.753906,177.095703 386.839844,176.996094 385.972656,176.996094 L385.972656,176.996094 L373.597656,176.996094 L373.597656,179.808594 C372.285156,178.824219 370.902344,178.109375 369.449219,177.664062 C367.996094,177.21875 366.636719,176.996094 365.371094,176.996094 L365.371094,176.996094 L348.882812,176.996094 C348.25,176.996094 347.652344,177.113281 347.089844,177.347656 C346.527344,177.582031 346.035156,177.904297 345.613281,178.314453 C345.191406,178.724609 344.863281,179.205078 344.628906,179.755859 C344.394531,180.306641 344.277344,180.898438 344.277344,181.53125 L344.277344,181.53125 L344.277344,215 L353.417969,215 Z M438.472656,215 L438.472656,206.28125 L422.054688,206.28125 C420.929688,206.28125 419.986328,205.941406 419.224609,205.261719 C418.462891,204.582031 418.082031,203.632812 418.082031,202.414062 L418.082031,202.414062 L418.082031,189.652344 C418.082031,188.527344 418.421875,187.583984 419.101562,186.822266 C419.78125,186.060547 420.742188,185.679688 421.984375,185.679688 L421.984375,185.679688 L438.472656,185.679688 C439.550781,185.679688 440.470703,186.019531 441.232422,186.699219 C441.994141,187.378906 442.375,188.316406 442.375,189.511719 C442.375,190.636719 442.035156,191.580078 441.355469,192.341797 C440.675781,193.103516 439.714844,193.484375 438.472656,193.484375 L438.472656,193.484375 L421.984375,193.484375 L421.984375,202.167969 L438.472656,202.167969 C440.769531,202.167969 442.720703,201.746094 444.326172,200.902344 C445.931641,200.058594 447.232422,199.009766 448.228516,197.755859 C449.224609,196.501953 449.945312,195.142578 450.390625,193.677734 C450.835938,192.212891 451.058594,190.847656 451.058594,189.582031 C451.058594,187.285156 450.636719,185.333984 449.792969,183.728516 C448.949219,182.123047 447.900391,180.822266 446.646484,179.826172 C445.392578,178.830078 444.033203,178.109375 442.568359,177.664062 C441.103516,177.21875 439.738281,176.996094 438.472656,176.996094 L438.472656,176.996094 L421.984375,176.996094 C419.6875,176.996094 417.736328,177.417969 416.130859,178.261719 C414.525391,179.105469 413.224609,180.154297 412.228516,181.408203 C411.232422,182.662109 410.511719,184.021484 410.066406,185.486328 C409.621094,186.951172 409.398438,188.316406 409.398438,189.582031 L409.398438,189.582031 L409.398438,202.414062 C409.398438,204.710938 409.820312,206.662109 410.664062,208.267578 C411.507812,209.873047 412.556641,211.173828 413.810547,212.169922 C415.064453,213.166016 416.423828,213.886719 417.888672,214.332031 C419.353516,214.777344 420.71875,215 421.984375,215 L421.984375,215 L438.472656,215 Z M469.351562,215 L469.351562,186.136719 L485.347656,186.136719 C486.449219,186.136719 487.474609,186.318359 488.423828,186.681641 C489.373047,187.044922 490.199219,187.566406 490.902344,188.246094 C491.605469,188.925781 492.162109,189.740234 492.572266,190.689453 C492.982422,191.638672 493.1875,192.710938 493.1875,193.90625 L493.1875,193.90625 L493.1875,215 L502.328125,215 L502.328125,193.90625 C502.328125,191.84375 502.070312,189.992188 501.554688,188.351562 C501.039062,186.710938 500.341797,185.263672 499.462891,184.009766 C498.583984,182.755859 497.576172,181.689453 496.439453,180.810547 C495.302734,179.931641 494.107422,179.205078 492.853516,178.630859 C491.599609,178.056641 490.333984,177.640625 489.056641,177.382812 C487.779297,177.125 486.566406,176.996094 485.417969,176.996094 L485.417969,176.996094 L464.816406,176.996094 C464.183594,176.996094 463.585938,177.113281 463.023438,177.347656 C462.460938,177.582031 461.96875,177.904297 461.546875,178.314453 C461.125,178.724609 460.796875,179.205078 460.5625,179.755859 C460.328125,180.306641 460.210938,180.898438 460.210938,181.53125 L460.210938,181.53125 L460.210938,215 L469.351562,215 Z M530.816406,215 L530.816406,186.136719 L546.777344,186.136719 L546.777344,176.996094 L530.816406,176.996094 L530.816406,164.585938 L521.570312,164.585938 L521.570312,176.996094 L509.6875,176.996094 L509.6875,186.136719 L521.570312,186.136719 L521.570312,215 L530.816406,215 Z" id="MasteringPloneDevelopment" fill="#585858" fill-rule="nonzero"></path>
    </g>
</svg>