<?xml version="1.0" encoding="UTF-8"?>
<svg width="151px" height="64px" viewBox="0 0 151 64" version="1.1" xmlns="http://www.w3.org/2000/svg" xmlns:xlink="http://www.w3.org/1999/xlink">
    <title>Logo</title>
    <defs>
        <path d="M42.5770097,15.0499088 C42.8024043,15.0499088 43.013309,14.99839 43.2097242,14.8953526 C43.4061392,14.7923151 43.5590855,14.6409789 43.6685627,14.4413438 L43.6685627,14.4413438 L48.121713,6.60727702 L48.121713,14.8567135 L50.6525705,14.8567135 L50.6525705,2.07684876 C50.6525705,1.78705593 50.5656327,1.52946229 50.3917568,1.30406785 C50.2178813,1.07867341 49.9957067,0.927337125 49.7252334,0.850059031 C49.4418803,0.779220779 49.1697972,0.795320395 48.9089835,0.898357854 C48.6481699,1.00139531 48.4437051,1.17527102 48.2955886,1.41998496 L48.2955886,1.41998496 L42.5770097,11.3598798 L36.8584307,1.41998496 C36.7875926,1.297628 36.7006548,1.19298058 36.5976174,1.10604271 C36.4945799,1.01910487 36.3802726,0.951486523 36.2546958,0.903187728 C36.1291187,0.854888905 35.998712,0.825909634 35.8634752,0.816249859 C35.7282387,0.806590111 35.5930022,0.817859826 35.4577654,0.850059031 C35.1808523,0.927337125 34.9570676,1.07867341 34.786412,1.30406785 C34.6157562,1.52946229 34.5304282,1.78705593 34.5304282,2.07684876 L34.5304282,2.07684876 L34.5304282,14.8567135 L37.0419663,14.8567135 L37.0419663,6.60727702 L41.514436,14.4413438 C41.6239132,14.6409789 41.7736395,14.7923151 41.9636148,14.8953526 C42.1535903,14.99839 42.3580551,15.0499088 42.5770097,15.0499088 Z M61.3877858,14.8567135 C62.0188902,14.8567135 62.5550071,14.7407964 62.996136,14.5089621 C63.4372652,14.2771278 63.7946763,13.9889449 64.0683696,13.6444134 C64.3420629,13.2998819 64.540088,12.9263712 64.6624448,12.5238811 C64.7848019,12.121391 64.8459804,11.7462703 64.8459804,11.3985188 L64.8459804,11.3985188 L64.8459804,7.87270579 C64.8459804,7.24160136 64.7300632,6.7054846 64.4982289,6.26435547 C64.2663947,5.82322636 63.9782118,5.46581517 63.6336804,5.19212193 C63.2891489,4.91842867 62.9156382,4.72040356 62.513148,4.59804658 C62.1106579,4.4756896 61.7355372,4.41451112 61.3877858,4.41451112 L61.3877858,4.41451112 L55.8720618,4.41451112 L55.8720618,6.80047225 L61.3877858,6.80047225 C61.6968982,6.80047225 61.9528817,6.89706987 62.1557369,7.0902651 C62.3585918,7.28346034 62.4600194,7.54427392 62.4600194,7.87270579 L62.4600194,7.87270579 L62.4600194,11.3791993 C62.4600194,11.6883117 62.3666417,11.9459053 62.1798861,12.1519802 C61.9931309,12.3580552 61.7290973,12.4610926 61.3877858,12.4610926 L61.3877858,12.4610926 L56.876677,12.4610926 C56.5804443,12.4610926 56.3244605,12.3693249 56.1087259,12.1857894 C55.8929913,12.0022539 55.785124,11.7462703 55.785124,11.4178384 C55.785124,11.108726 55.8785015,10.8495224 56.065257,10.6402275 C56.2520126,10.4309327 56.5160459,10.3262853 56.8573574,10.3262853 L56.8573574,10.3262853 L61.3877858,10.3262853 L61.3877858,7.93066439 L56.8573574,7.93066439 C56.2262532,7.93066439 55.6901364,8.04658153 55.2490072,8.27841581 C54.807878,8.51025009 54.4504669,8.79843297 54.1767736,9.14296446 C53.9030803,9.48749598 53.7050552,9.86261673 53.5826983,10.2683267 C53.4603412,10.6740367 53.3991628,11.0507674 53.3991628,11.3985188 C53.3991628,12.0296233 53.5150799,12.56574 53.7469142,13.0068692 C53.9787485,13.4479983 54.2669314,13.8054095 54.6114628,14.0791027 C54.9559945,14.352796 55.3295053,14.5508211 55.7319951,14.673178 C56.1344853,14.7955351 56.5096062,14.8567135 56.8573574,14.8567135 L56.8573574,14.8567135 L61.3877858,14.8567135 Z M74.3833852,14.8567135 C74.6216592,14.8567135 74.874423,14.8293442 75.1416764,14.7746056 C75.40893,14.7198669 75.6729633,14.634539 75.933777,14.5186219 C76.1945906,14.4027047 76.4441344,14.2529784 76.6824084,14.0694429 C76.9206827,13.8859075 77.1299773,13.6637329 77.3102928,13.4029194 C77.4906084,13.1421058 77.6355049,12.8394333 77.7449823,12.4949018 C77.8544595,12.1503703 77.9091982,11.7623698 77.9091982,11.3309005 C77.9091982,10.9767092 77.8464096,10.5935387 77.7208328,10.1813889 C77.595256,9.76923902 77.3940109,9.38767843 77.1170979,9.0367071 C76.8401846,8.68573574 76.4763335,8.39433295 76.0255446,8.16249867 C75.5747557,7.93066439 75.0273694,7.81474725 74.3833852,7.81474725 L74.3833852,7.81474725 L70.4905012,7.81474725 C70.4325425,7.81474725 70.3729742,7.81313728 70.3117955,7.80991734 C70.2506171,7.80669744 70.1958784,7.79220779 70.1475796,7.76644842 C70.0992809,7.74068906 70.059032,7.69883011 70.0268326,7.64087151 C69.9946333,7.58291297 69.9753139,7.50241494 69.9688739,7.39937748 C69.9688739,7.34785875 69.9720939,7.29473005 69.9785339,7.23999142 C69.9849736,7.18525275 70.0059031,7.13373402 70.0413222,7.08543523 C70.0767415,7.03713641 70.13148,6.99849736 70.2055383,6.96951809 C70.2795964,6.94053879 70.3810238,6.92604917 70.5098206,6.92604917 L70.5098206,6.92604917 L76.663089,6.92604917 L76.663089,4.41451112 L70.4905012,4.41451112 C70.1813888,4.41451112 69.8497371,4.46763979 69.4955457,4.57389718 C69.1413546,4.68015455 68.8129225,4.85242032 68.5102501,5.09069441 C68.2075774,5.32896856 67.9564238,5.63969088 67.7567886,6.02286144 C67.5571536,6.40603197 67.4573362,6.87775035 67.4573362,7.43801653 C67.4573362,7.72780938 67.5104647,8.04014166 67.6167222,8.3750134 C67.7229794,8.70988514 67.8968552,9.02221745 68.1383492,9.3120103 C68.3798432,9.60180315 68.6937857,9.84329718 69.0801761,10.0364924 C69.4665666,10.2296876 69.9366749,10.3262853 70.4905012,10.3262853 L70.4905012,10.3262853 L74.3833852,10.3262853 C75.0273694,10.3262853 75.3654611,10.661157 75.3976602,11.3309005 C75.3976602,11.6593324 75.3107224,11.9104862 75.1368465,12.0843619 C74.9629709,12.2582376 74.7053773,12.3451755 74.3640656,12.3451755 L74.3640656,12.3451755 L67.582913,12.3451755 L67.582913,14.8567135 L74.3833852,14.8567135 Z M85.4277127,14.8567135 L85.4277127,6.92604917 L89.8132446,6.92604917 L89.8132446,4.41451112 L85.4277127,4.41451112 L85.4277127,1.00461522 L82.8871955,1.00461522 L82.8871955,4.41451112 L79.6221959,4.41451112 L79.6221959,6.92604917 L82.8871955,6.92604917 L82.8871955,14.8567135 L85.4277127,14.8567135 Z M100.026833,14.8567135 L100.026833,12.4610926 L95.5157239,12.4610926 C95.2066115,12.4610926 94.947408,12.3677149 94.7381131,12.1809595 C94.5288182,11.9942041 94.4241709,11.7333906 94.4241709,11.3985188 L94.4241709,11.3985188 L94.4241709,7.89202534 C94.4241709,7.58291297 94.5175484,7.32370935 94.7043039,7.1144145 C94.8910594,6.90511968 95.1550928,6.80047225 95.4964042,6.80047225 L95.4964042,6.80047225 L100.026833,6.80047225 C100.323065,6.80047225 100.575829,6.89384993 100.785124,7.08060536 C100.994419,7.26736072 101.099066,7.52495437 101.099066,7.85338629 C101.099066,8.16249867 101.005689,8.42170225 100.818933,8.6309971 C100.632178,8.84029193 100.368144,8.94493935 100.026833,8.94493935 L100.026833,8.94493935 L95.4964042,8.94493935 L95.4964042,11.3309005 L100.026833,11.3309005 C100.657937,11.3309005 101.194054,11.2149834 101.635183,10.9831491 C102.076312,10.7513148 102.433723,10.4631319 102.707416,10.1186004 C102.98111,9.77406889 103.179135,9.40055811 103.301492,8.99806805 C103.423849,8.59557796 103.485027,8.22045721 103.485027,7.87270579 C103.485027,7.24160136 103.36911,6.7054846 103.137276,6.26435547 C102.905442,5.82322636 102.617259,5.46581517 102.272727,5.19212193 C101.928196,4.91842867 101.554685,4.72040356 101.152195,4.59804658 C100.749705,4.4756896 100.374584,4.41451112 100.026833,4.41451112 L100.026833,4.41451112 L95.4964042,4.41451112 C94.8653001,4.41451112 94.3291833,4.53042826 93.8880541,4.76226254 C93.4469249,4.99409682 93.0895138,5.28227971 92.8158205,5.6268112 C92.5421271,5.97134271 92.3441021,6.3448535 92.2217452,6.74734356 C92.0993881,7.14983364 92.0382097,7.52495437 92.0382097,7.87270579 L92.0382097,7.87270579 L92.0382097,11.3985188 C92.0382097,12.0296233 92.1541268,12.56574 92.3859611,13.0068692 C92.6177954,13.4479983 92.9059782,13.8054095 93.2505097,14.0791027 C93.5950414,14.352796 93.9685522,14.5508211 94.371042,14.673178 C94.7735322,14.7955351 95.1486531,14.8567135 95.4964042,14.8567135 L95.4964042,14.8567135 L100.026833,14.8567135 Z M108.453365,14.8567135 L108.453365,7.93066439 C108.453365,7.60223246 108.540303,7.35268862 108.714178,7.18203285 C108.888054,7.01137704 109.145648,6.92604917 109.486959,6.92604917 L109.486959,6.92604917 L115.13792,6.92604917 L115.13792,4.41451112 L109.46764,4.41451112 C109.235806,4.41451112 108.986262,4.44188042 108.719008,4.49661909 C108.451755,4.55135772 108.187721,4.63668563 107.926908,4.75260277 C107.666094,4.86851991 107.41655,5.01824622 107.178276,5.20178168 C106.940002,5.38531717 106.729097,5.60749167 106.545562,5.86830525 C106.362026,6.12911881 106.21552,6.43018137 106.106043,6.77149298 C105.996565,7.11280453 105.941827,7.499195 105.941827,7.93066439 L105.941827,7.93066439 L105.941827,14.8567135 L108.453365,14.8567135 Z M120.164216,2.27004399 L120.164216,0 L117.652678,0 L117.652678,2.27004399 L120.164216,2.27004399 Z M120.164216,14.8567135 L120.164216,4.41451112 L117.652678,4.41451112 L117.652678,14.8567135 L120.164216,14.8567135 Z M125.905334,14.8567135 L125.905334,6.92604917 L130.300526,6.92604917 C130.603198,6.92604917 130.884941,6.97595793 131.145755,7.07577545 C131.406569,7.17559301 131.633573,7.31887945 131.826768,7.50563487 C132.019964,7.69239024 132.17291,7.91617474 132.285607,8.17698829 C132.398304,8.43780187 132.454653,8.7324246 132.454653,9.06085649 L132.454653,9.06085649 L132.454653,14.8567135 L134.966191,14.8567135 L134.966191,9.06085649 C134.966191,8.49415047 134.895353,7.98540302 134.753676,7.53461414 C134.612,7.08382526 134.420414,6.68616508 134.17892,6.34163356 C133.937426,5.99710208 133.660513,5.70408929 133.348181,5.46259526 C133.035848,5.2211012 132.707417,5.02146613 132.362885,4.86369003 C132.018353,4.70591391 131.670602,4.59160674 131.319631,4.52076849 C130.968659,4.44993023 130.635398,4.41451112 130.319845,4.41451112 L130.319845,4.41451112 L124.659225,4.41451112 C124.485349,4.41451112 124.321133,4.4467103 124.166577,4.51110871 C124.012021,4.57550712 123.876784,4.66405496 123.760867,4.77675216 C123.64495,4.8894494 123.554792,5.02146613 123.490394,5.17280241 C123.425995,5.32413866 123.393796,5.48674466 123.393796,5.66062037 L123.393796,5.66062037 L123.393796,14.8567135 L125.905334,14.8567135 Z M145.826983,19.3871418 C146.065257,19.3871418 146.318021,19.3597725 146.585274,19.3050338 C146.852528,19.2502952 147.116561,19.1649673 147.377375,19.0490501 C147.638188,18.933133 147.887732,18.7834067 148.126006,18.5998712 C148.36428,18.4163357 148.573575,18.1941612 148.753891,17.9333476 C148.934206,17.6725341 149.079103,17.3698615 149.18858,17.02533 C149.298057,16.6807985 149.352796,16.2927981 149.352796,15.8613287 L149.352796,15.8613287 L149.352796,7.93066439 C149.352796,7.499195 149.298057,7.11280453 149.18858,6.77149298 C149.079103,6.43018137 148.934206,6.12911881 148.753891,5.86830525 C148.573575,5.60749167 148.36428,5.38531717 148.126006,5.20178168 C147.887732,5.01824622 147.638188,4.86851991 147.377375,4.75260277 C147.116561,4.63668563 146.852528,4.55135772 146.585274,4.49661909 C146.318021,4.44188042 146.065257,4.41451112 145.826983,4.41451112 L145.826983,4.41451112 L141.296554,4.41451112 C140.865085,4.41451112 140.478695,4.46924976 140.137383,4.57872706 C139.796072,4.68820436 139.495009,4.83310077 139.234195,5.01341632 C138.973382,5.19373187 138.751208,5.40302672 138.567672,5.64130085 C138.384136,5.87957497 138.23441,6.12911881 138.118493,6.38993239 C138.002576,6.65074594 137.917248,6.91316949 137.862509,7.17720295 C137.807771,7.44123646 137.780401,7.69239024 137.780401,7.93066439 L137.780401,7.93066439 L137.780401,11.3309005 C137.780401,11.7623698 137.83514,12.1503703 137.944617,12.4949018 C138.054095,12.8394333 138.198991,13.1421058 138.379307,13.4029194 C138.559622,13.6637329 138.768917,13.8859075 139.007191,14.0694429 C139.245465,14.2529784 139.495009,14.4027047 139.755823,14.5186219 C140.016636,14.634539 140.27906,14.7198669 140.543093,14.7746056 C140.807127,14.8293442 141.05828,14.8567135 141.296554,14.8567135 L141.296554,14.8567135 L145.826983,14.8567135 L145.826983,12.3451755 L141.315874,12.3451755 C140.981002,12.3451755 140.726629,12.2582376 140.552753,12.0843619 C140.378877,11.9104862 140.291939,11.6593324 140.291939,11.3309005 L140.291939,11.3309005 L140.291939,7.93066439 C140.291939,7.64087151 140.382097,7.40098745 140.562413,7.21101212 C140.742728,7.02103682 140.987442,6.92604917 141.296554,6.92604917 L141.296554,6.92604917 L145.826983,6.92604917 C146.168294,6.92604917 146.422668,7.01137704 146.590104,7.18203285 C146.75754,7.35268862 146.841258,7.60223246 146.841258,7.93066439 L146.841258,7.93066439 L146.841258,15.8613287 C146.841258,16.1897606 146.75754,16.4409144 146.590104,16.6147902 C146.422668,16.7886659 146.168294,16.8756037 145.826983,16.8756037 L145.826983,16.8756037 L141.296554,16.8756037 L141.296554,19.3871418 L145.826983,19.3871418 Z M88.7635504,36.838038 L88.7635504,26.5117528 C88.7635504,26.1833207 88.8504882,25.9321671 89.024364,25.7582912 C89.1982399,25.5844156 89.4526135,25.4974776 89.7874853,25.4974776 L89.7874853,25.4974776 L95.4481055,25.4974776 C95.7765375,25.4974776 96.0663303,25.5506064 96.3174842,25.6568639 C96.5686379,25.7631211 96.7827626,25.9096274 96.9598582,26.0963829 C97.136954,26.2831385 97.2770204,26.5085328 97.3800578,26.7725664 C97.4830953,27.0365998 97.5507137,27.3263925 97.5829128,27.6419448 L97.5829128,27.6419448 L97.5829128,28.7817968 C97.5829128,29.1037886 97.531394,29.3919718 97.4283566,29.6463454 C97.3253191,29.9007191 97.1804229,30.1180638 96.9936674,30.2983794 C96.8069121,30.4786949 96.5831277,30.6219813 96.322314,30.7282387 C96.0615004,30.8344962 95.7700976,30.9005044 95.4481055,30.9262638 L95.4481055,30.9262638 L89.7681656,30.9262638 L89.7681656,33.4378019 L95.4481055,33.4378019 C95.7572179,33.4378019 96.0872598,33.4023828 96.4382312,33.3315444 C96.7892026,33.2607063 97.136954,33.1480089 97.4814854,32.9934527 C97.8260169,32.8388965 98.1560588,32.6392615 98.4716111,32.3945476 C98.7871632,32.1498336 99.0656864,31.8552108 99.3071803,31.5106794 C99.5486743,31.1661479 99.7402597,30.7684876 99.8819362,30.3176987 C100.023613,29.8669099 100.094451,29.3549426 100.094451,28.7817968 L100.094451,28.7817968 L100.094451,27.6419448 C100.094451,27.3328324 100.059032,27.0027906 99.9881936,26.6518191 C99.9173553,26.300848 99.8030482,25.9530966 99.6452721,25.6085649 C99.4874959,25.2640334 99.287861,24.9339915 99.0463667,24.6184395 C98.8048727,24.3028872 98.51186,24.0243641 98.1673286,23.78287 C97.8227969,23.541376 97.4251369,23.3481807 96.974348,23.2032843 C96.5235591,23.0583879 96.0148115,22.9859397 95.4481055,22.9859397 L95.4481055,22.9859397 L89.7681656,22.9859397 C89.4204142,22.9859397 89.0404637,23.0487281 88.6283139,23.174305 C88.216164,23.2998819 87.8346034,23.501127 87.483632,23.7780401 C87.1326606,24.0549533 86.8396479,24.4188043 86.6045936,24.8695931 C86.3695396,25.320382 86.2520123,25.8677687 86.2520123,26.5117528 L86.2520123,26.5117528 L86.2520123,36.838038 L88.7635504,36.838038 Z M107.371471,36.838038 L107.371471,34.3264999 L106.250939,34.3264999 C105.961146,34.3264999 105.719652,34.2347323 105.526457,34.0511968 C105.333262,33.8676612 105.236664,33.6213374 105.236664,33.312225 L105.236664,33.312225 L105.236664,21.9813245 L102.725126,21.9813245 L102.725126,33.312225 C102.725126,33.9626488 102.841043,34.5116453 103.072877,34.9592142 C103.304712,35.4067834 103.597725,35.7706342 103.951916,36.0507675 C104.306107,36.3309005 104.687668,36.5321456 105.096598,36.6545024 C105.505528,36.7768596 105.890308,36.838038 106.250939,36.838038 L106.250939,36.838038 L107.371471,36.838038 Z M117.643018,36.838038 C117.881292,36.838038 118.134056,36.8106688 118.401309,36.75593 C118.668563,36.7011913 118.932596,36.6158634 119.19341,36.4999462 C119.454223,36.3840291 119.703767,36.2343028 119.942041,36.0507675 C120.180315,35.867232 120.38961,35.6450574 120.569926,35.3842437 C120.750242,35.1234304 120.895138,34.8207577 121.004615,34.4762263 C121.114093,34.1316948 121.168831,33.7436942 121.168831,33.312225 L121.168831,33.312225 L121.168831,29.9119889 C121.168831,29.5577975 121.106043,29.174627 120.980466,28.7624772 C120.854889,28.3503273 120.653644,27.9687667 120.376731,27.6177953 C120.099817,27.2668242 119.735966,26.9754213 119.285178,26.743587 C118.834389,26.5117528 118.287002,26.3958356 117.643018,26.3958356 L117.643018,26.3958356 L113.11259,26.3958356 C112.764838,26.3958356 112.384888,26.457014 111.972738,26.5793709 C111.560588,26.701728 111.179027,26.9029731 110.828056,27.1831061 C110.477085,27.4632391 110.184072,27.8270902 109.949018,28.2746591 C109.713964,28.7222283 109.596437,29.2680048 109.596437,29.9119889 L109.596437,29.9119889 L109.596437,33.312225 C109.596437,33.9626488 109.713964,34.5116453 109.949018,34.9592142 C110.184072,35.4067834 110.477085,35.7706342 110.828056,36.0507675 C111.179027,36.3309005 111.560588,36.5321456 111.972738,36.6545024 C112.384888,36.7768596 112.764838,36.838038 113.11259,36.838038 L113.11259,36.838038 L117.643018,36.838038 Z M117.643018,34.3264999 L113.131909,34.3264999 C112.797038,34.3264999 112.542664,34.2395621 112.368788,34.0656863 C112.194912,33.8918107 112.107975,33.6406568 112.107975,33.312225 L112.107975,33.312225 L112.107975,29.9119889 C112.107975,29.5835569 112.194912,29.334013 112.368788,29.1633572 C112.542664,28.9927016 112.797038,28.9073737 113.131909,28.9073737 L113.131909,28.9073737 L117.643018,28.9073737 C117.97145,28.9073737 118.222604,28.9910915 118.396479,29.1585273 C118.570355,29.3259632 118.657293,29.5835569 118.657293,29.9313083 L118.657293,29.9313083 L118.657293,33.312225 C118.657293,33.6406568 118.573575,33.8918107 118.406139,34.0656863 C118.238703,34.2395621 117.98433,34.3264999 117.643018,34.3264999 L117.643018,34.3264999 Z M126.639476,36.838038 L126.639476,28.9073737 L131.034668,28.9073737 C131.33734,28.9073737 131.619083,28.9572823 131.879897,29.0571 C132.140711,29.1569175 132.367715,29.3002038 132.56091,29.4869594 C132.754105,29.6737146 132.907051,29.8974991 133.019749,30.1583127 C133.132446,30.4191263 133.188795,30.7137492 133.188795,31.0421809 L133.188795,31.0421809 L133.188795,36.838038 L135.700333,36.838038 L135.700333,31.0421809 C135.700333,30.4754749 135.629494,29.9667276 135.487818,29.5159385 C135.346141,29.0651499 135.154556,28.6674896 134.913062,28.3229581 C134.671568,27.9784264 134.394655,27.6854137 134.082323,27.4439197 C133.76999,27.2024258 133.441558,27.0027906 133.097027,26.8450144 C132.752495,26.6872385 132.404744,26.5729312 132.053773,26.5020928 C131.702801,26.4312547 131.369539,26.3958356 131.053987,26.3958356 L131.053987,26.3958356 L125.393367,26.3958356 C125.219491,26.3958356 125.055275,26.4280347 124.900719,26.4924331 C124.746163,26.5568315 124.610926,26.6453794 124.495009,26.7580766 C124.379092,26.8707737 124.288934,27.0027906 124.224536,27.1541267 C124.160137,27.3054632 124.127938,27.4680692 124.127938,27.6419448 L124.127938,27.6419448 L124.127938,36.838038 L126.639476,36.838038 Z M146.503166,36.838038 L146.503166,34.4424171 L141.992057,34.4424171 C141.682945,34.4424171 141.423741,34.3490393 141.214447,34.1622841 C141.005152,33.9755285 140.900504,33.7147149 140.900504,33.3798431 L140.900504,33.3798431 L140.900504,29.8733498 C140.900504,29.5642375 140.993882,29.3050337 141.180638,29.0957391 C141.367393,28.8864442 141.631426,28.7817968 141.972738,28.7817968 L141.972738,28.7817968 L146.503166,28.7817968 C146.799399,28.7817968 147.052163,28.8751743 147.261458,29.0619299 C147.470752,29.2486851 147.5754,29.5062788 147.5754,29.8347108 C147.5754,30.1438232 147.482022,30.4030267 147.295267,30.6123216 C147.108511,30.8216165 146.844478,30.9262638 146.503166,30.9262638 L146.503166,30.9262638 L141.972738,30.9262638 L141.972738,33.312225 L146.503166,33.312225 C147.134271,33.312225 147.670387,33.1963079 148.111517,32.9644736 C148.552646,32.7326393 148.910057,32.4444565 149.18375,32.0999248 C149.457443,31.7553933 149.655469,31.3818825 149.777825,30.9793924 C149.900182,30.5769025 149.961361,30.2017816 149.961361,29.8540302 C149.961361,29.2229258 149.845444,28.6868089 149.61361,28.24568 C149.381775,27.8045508 149.093592,27.4471397 148.749061,27.1734464 C148.404529,26.8997531 148.031018,26.701728 147.628528,26.5793709 C147.226038,26.457014 146.850918,26.3958356 146.503166,26.3958356 L146.503166,26.3958356 L141.972738,26.3958356 C141.341634,26.3958356 140.805517,26.5117528 140.364388,26.743587 C139.923259,26.9754213 139.565847,27.2636042 139.292154,27.6081356 C139.018461,27.9526671 138.820436,28.3261778 138.698079,28.728668 C138.575722,29.1311581 138.514543,29.5062788 138.514543,29.8540302 L138.514543,29.8540302 L138.514543,33.3798431 C138.514543,34.0109479 138.630461,34.5470644 138.862295,34.9881936 C139.094129,35.4293228 139.382312,35.7867339 139.726843,36.0604272 C140.071375,36.3341205 140.444886,36.5321456 140.847376,36.6545024 C141.249866,36.7768596 141.624987,36.838038 141.972738,36.838038 L141.972738,36.838038 L146.503166,36.838038 Z M8.0465815,58.8193624 C8.87732104,58.8193624 9.64688204,58.6744659 10.3552646,58.3846732 C11.0636471,58.0948802 11.675432,57.6940002 12.1906193,57.1820329 C12.7058066,56.6700653 13.1099066,56.0598904 13.4029194,55.3515079 C13.6959322,54.6431254 13.8424385,53.8671244 13.8424385,53.0235054 L13.8424385,53.0235054 L13.8424385,50.7631213 C13.8424385,49.9259417 13.6959322,49.1515509 13.4029194,48.4399484 C13.1099066,47.7283461 12.7058066,47.1165611 12.1906193,46.6045938 C11.675432,46.0926265 11.0636471,45.6917462 10.3552646,45.4019535 C9.64688204,45.1121605 8.87732104,44.9672643 8.0465815,44.9672643 L8.0465815,44.9672643 L1.26542879,44.9672643 C1.08511323,44.9672643 0.917677364,44.9994633 0.763121176,45.0638617 C0.608564988,45.1282601 0.474938283,45.2184179 0.362241066,45.3343351 C0.249543843,45.4502522 0.160996029,45.585489 0.0965976172,45.7400452 C0.0321992057,45.8946014 0,46.0588173 0,46.2326928 L0,46.2326928 L0,57.5539336 C0,57.7342491 0.0321992057,57.901685 0.0965976172,58.0562412 C0.160996029,58.2107974 0.249543843,58.344424 0.362241066,58.4571215 C0.474938283,58.5698186 0.608564988,58.6583663 0.763121176,58.7227649 C0.917677364,58.7871631 1.08511323,58.8193624 1.26542879,58.8193624 L1.26542879,58.8193624 L8.0465815,58.8193624 Z M8.0465815,56.3078244 L2.51153805,56.3078244 L2.51153805,47.478802 L8.0465815,47.478802 C8.53600943,47.478802 8.98196843,47.5576903 9.38445852,47.7154664 C9.78694858,47.8732423 10.13309,48.0954169 10.4228829,48.3819899 C10.7126757,48.6685629 10.9364602,49.0147042 11.0942363,49.4204143 C11.2520125,49.8261242 11.3309005,50.2736934 11.3309005,50.7631213 L11.3309005,50.7631213 L11.3309005,53.0235054 C11.3309005,53.5193733 11.2520125,53.968552 11.0942363,54.3710422 C10.9364602,54.7735323 10.7126757,55.1180638 10.4228829,55.4046368 C10.13309,55.6912095 9.78694858,55.9133841 9.38445852,56.0711603 C8.98196843,56.2289364 8.53600943,56.3078244 8.0465815,56.3078244 L8.0465815,56.3078244 Z M24.6259525,58.8193624 L24.6259525,56.4237415 L20.1148438,56.4237415 C19.8057314,56.4237415 19.5465279,56.3303638 19.337233,56.1436085 C19.1279382,55.956853 19.0232908,55.6960393 19.0232908,55.3611676 L19.0232908,55.3611676 L19.0232908,51.8546743 C19.0232908,51.5455619 19.1166685,51.2863581 19.3034238,51.0770635 C19.4901792,50.8677686 19.7542127,50.7631213 20.0955243,50.7631213 L20.0955243,50.7631213 L24.6259525,50.7631213 C24.9221852,50.7631213 25.174949,50.8564988 25.3842438,51.0432543 C25.5935387,51.2300096 25.6981861,51.4876032 25.6981861,51.8160352 C25.6981861,52.1251476 25.6048084,52.3843511 25.418053,52.593646 C25.2312976,52.8029409 24.9672641,52.9075883 24.6259525,52.9075883 L24.6259525,52.9075883 L20.0955243,52.9075883 L20.0955243,55.2935495 L24.6259525,55.2935495 C25.257057,55.2935495 25.7931738,55.1776323 26.234303,54.945798 C26.6754319,54.7139638 27.0328433,54.4257809 27.3065363,54.0812492 C27.5802296,53.7367178 27.7782547,53.363207 27.9006118,52.9607168 C28.0229687,52.558227 28.0841471,52.1831061 28.0841471,51.8353546 C28.0841471,51.2042502 27.9682302,50.6681334 27.736396,50.2270045 C27.5045617,49.7858753 27.2163785,49.4284642 26.8718471,49.1547709 C26.5273157,48.8810775 26.1538049,48.6830525 25.7513148,48.5606953 C25.3488247,48.4383385 24.973704,48.3771601 24.6259525,48.3771601 L24.6259525,48.3771601 L20.0955243,48.3771601 C19.4644199,48.3771601 18.9283031,48.4930772 18.487174,48.7249115 C18.0460449,48.9567458 17.6886337,49.2449286 17.4149404,49.5894601 C17.1412472,49.9339915 16.9432221,50.3075023 16.8208651,50.7099924 C16.6985081,51.1124826 16.6373296,51.4876032 16.6373296,51.8353546 L16.6373296,51.8353546 L16.6373296,55.3611676 C16.6373296,55.9922723 16.7532467,56.5283888 16.985081,56.969518 C17.2169153,57.4106472 17.5050982,57.7680583 17.8496297,58.0417516 C18.1941612,58.315445 18.567672,58.51347 18.9701621,58.6358269 C19.3726521,58.758184 19.7477729,58.8193624 20.0955243,58.8193624 L20.0955243,58.8193624 L24.6259525,58.8193624 Z M31.864334,58.8386818 C32.8753889,58.8386818 33.8139959,58.7018354 34.6801546,58.4281421 C35.5463133,58.1544488 36.3480733,57.777718 37.0854352,57.2979501 C37.8227971,56.8181818 38.4957605,56.2482558 39.1043253,55.588172 C39.7128904,54.9280885 40.2634967,54.210046 40.7561446,53.4340454 C41.2487925,52.6580444 41.6850916,51.8417946 42.0650424,50.9852956 C42.4449931,50.1287969 42.7766449,49.2594182 43.0599979,48.3771601 L43.0599979,48.3771601 L40.3939037,48.3771601 C40.2779865,48.821509 40.1025008,49.3238166 39.8674466,49.8840829 C39.6323923,50.4443489 39.3474294,51.0158848 39.0125577,51.5986905 C38.6776859,52.1814962 38.2961253,52.7498121 37.8678758,53.3036384 C37.4396266,53.8574648 36.9743479,54.3517225 36.4720403,54.786412 C35.9697327,55.2211012 35.4368358,55.5704625 34.8733498,55.8344961 C34.3098638,56.0985295 33.7222282,56.2305463 33.1104432,56.2305463 L33.1104432,56.2305463 L33.1104432,48.3771601 L30.5989051,48.3771601 L30.5989051,57.5925726 C30.5989051,57.7664485 30.6311045,57.9290545 30.6955029,58.0803907 C30.7599013,58.2317269 30.8500591,58.3637437 30.9659762,58.4764409 C31.0818934,58.589138 31.2171299,58.6776859 31.3716861,58.7420843 C31.5262423,58.8064827 31.6904582,58.8386818 31.864334,58.8386818 Z M52.5587635,58.8193624 L52.5587635,56.4237415 L48.0476547,56.4237415 C47.7385423,56.4237415 47.4793388,56.3303638 47.2700439,56.1436085 C47.0607492,55.956853 46.9561017,55.6960393 46.9561017,55.3611676 L46.9561017,55.3611676 L46.9561017,51.8546743 C46.9561017,51.5455619 47.0494794,51.2863581 47.236235,51.0770635 C47.4229902,50.8677686 47.6870236,50.7631213 48.0283353,50.7631213 L48.0283353,50.7631213 L52.5587635,50.7631213 C52.8549962,50.7631213 53.1077599,50.8564988 53.3170549,51.0432543 C53.5263498,51.2300096 53.6309971,51.4876032 53.6309971,51.8160352 C53.6309971,52.1251476 53.5376193,52.3843511 53.3508641,52.593646 C53.1641085,52.8029409 52.9000752,52.9075883 52.5587635,52.9075883 L52.5587635,52.9075883 L48.0283353,52.9075883 L48.0283353,55.2935495 L52.5587635,55.2935495 C53.1898679,55.2935495 53.7259847,55.1776323 54.1671139,54.945798 C54.6082431,54.7139638 54.9656542,54.4257809 55.2393475,54.0812492 C55.5130405,53.7367178 55.7110659,53.363207 55.8334228,52.9607168 C55.9557796,52.558227 56.0169583,52.1831061 56.0169583,51.8353546 C56.0169583,51.2042502 55.9010412,50.6681334 55.6692069,50.2270045 C55.4373726,49.7858753 55.1491897,49.4284642 54.804658,49.1547709 C54.4601266,48.8810775 54.0866158,48.6830525 53.6841257,48.5606953 C53.2816358,48.4383385 52.9065149,48.3771601 52.5587635,48.3771601 L52.5587635,48.3771601 L48.0283353,48.3771601 C47.3972308,48.3771601 46.861114,48.4930772 46.4199848,48.7249115 C45.9788559,48.9567458 45.6214445,49.2449286 45.3477515,49.5894601 C45.0740582,49.9339915 44.8760331,50.3075023 44.753676,50.7099924 C44.6313191,51.1124826 44.5701404,51.4876032 44.5701404,51.8353546 L44.5701404,51.8353546 L44.5701404,55.3611676 C44.5701404,55.9922723 44.6860579,56.5283888 44.9178921,56.969518 C45.1497264,57.4106472 45.4379093,57.7680583 45.7824407,58.0417516 C46.1269721,58.315445 46.5004829,58.51347 46.9029731,58.6358269 C47.3054632,58.758184 47.6805839,58.8193624 48.0283353,58.8193624 L48.0283353,58.8193624 L52.5587635,58.8193624 Z M63.1201029,58.8193624 L63.1201029,56.3078244 L61.9995706,56.3078244 C61.7097779,56.3078244 61.4682836,56.2160567 61.2750887,56.0325212 C61.0818931,55.8489857 60.9852957,55.6026618 60.9852957,55.2935495 L60.9852957,55.2935495 L60.9852957,43.962649 L58.4737576,43.962649 L58.4737576,55.2935495 C58.4737576,55.9439733 58.5896748,56.4929698 58.821509,56.9405387 C59.0533433,57.3881078 59.346356,57.7519587 59.7005474,58.032092 C60.0547386,58.312225 60.4362992,58.51347 60.845229,58.6358269 C61.2541591,58.758184 61.6389395,58.8193624 61.9995706,58.8193624 L61.9995706,58.8193624 L63.1201029,58.8193624 Z M73.3916497,58.8193624 C73.6299237,58.8193624 73.8826875,58.7919932 74.1499408,58.7372545 C74.4171944,58.6825158 74.6812278,58.5971878 74.9420414,58.4812707 C75.2028551,58.3653536 75.4523989,58.2156272 75.6906729,58.032092 C75.9289471,57.8485564 76.138242,57.6263818 76.3185576,57.3655682 C76.4988731,57.1047548 76.6437693,56.8020822 76.7532468,56.4575507 C76.8627239,56.1130193 76.9174627,55.7250187 76.9174627,55.2935495 L76.9174627,55.2935495 L76.9174627,51.8933133 C76.9174627,51.5391219 76.8546741,51.1559515 76.7290973,50.7438016 C76.6035204,50.3316518 76.4022754,49.9500912 76.1253621,49.5991198 C75.848449,49.2481486 75.4845979,48.9567458 75.0338091,48.7249115 C74.5830202,48.4930772 74.0356338,48.3771601 73.3916497,48.3771601 L73.3916497,48.3771601 L68.8612213,48.3771601 C68.5134701,48.3771601 68.1335193,48.4383385 67.7213695,48.5606953 C67.3092197,48.6830525 66.9276591,48.8842975 66.5766876,49.1644306 C66.2257165,49.4445636 65.9327035,49.8084147 65.6976495,50.2559836 C65.4625953,50.7035527 65.3450683,51.2493292 65.3450683,51.8933133 L65.3450683,51.8933133 L65.3450683,55.2935495 C65.3450683,55.9439733 65.4625953,56.4929698 65.6976495,56.9405387 C65.9327035,57.3881078 66.2257165,57.7519587 66.5766876,58.032092 C66.9276591,58.312225 67.3092197,58.51347 67.7213695,58.6358269 C68.1335193,58.758184 68.5134701,58.8193624 68.8612213,58.8193624 L68.8612213,58.8193624 L73.3916497,58.8193624 Z M73.3916497,56.3078244 L68.8805409,56.3078244 C68.5456692,56.3078244 68.2912955,56.2208866 68.1174197,56.0470107 C67.9435441,55.8731352 67.856606,55.6219812 67.856606,55.2935495 L67.856606,55.2935495 L67.856606,51.8933133 C67.856606,51.5648813 67.9435441,51.3153375 68.1174197,51.1446816 C68.2912955,50.9740261 68.5456692,50.8886981 68.8805409,50.8886981 L68.8805409,50.8886981 L73.3916497,50.8886981 C73.7200815,50.8886981 73.9712354,50.9724159 74.145111,51.1398518 C74.3189868,51.3072877 74.4059246,51.5648813 74.4059246,51.9126327 L74.4059246,51.9126327 L74.4059246,55.2935495 C74.4059246,55.6219812 74.3222065,55.8731352 74.154771,56.0470107 C73.9873348,56.2208866 73.7329612,56.3078244 73.3916497,56.3078244 L73.3916497,56.3078244 Z M82.3301492,62.0843618 L82.3301492,51.8933133 C82.3301492,51.5648813 82.417087,51.3153375 82.5909626,51.1446816 C82.7648384,50.9740261 83.0224321,50.8886981 83.3637435,50.8886981 L83.3637435,50.8886981 L87.8748523,50.8886981 C88.2032843,50.8886981 88.4528282,50.9724159 88.623484,51.1398518 C88.7941396,51.3072877 88.8794675,51.5648813 88.8794675,51.9126327 L88.8794675,51.9126327 L88.8794675,55.2935495 C88.8794675,55.6219812 88.7957497,55.8731352 88.6283139,56.0470107 C88.460878,56.2208866 88.2097241,56.3078244 87.8748523,56.3078244 L87.8748523,56.3078244 L83.3444241,56.3078244 L83.3444241,58.8193624 L87.8748523,58.8193624 C88.1131266,58.8193624 88.3642802,58.7919932 88.6283139,58.7372545 C88.8923472,58.6825158 89.1547707,58.5971878 89.4155843,58.4812707 C89.676398,58.3653536 89.9259418,58.2156272 90.1642158,58.032092 C90.40249,57.8485564 90.6117849,57.6263818 90.7921005,57.3655682 C90.972416,57.1047548 91.1173123,56.8020822 91.2267897,56.4575507 C91.3362671,56.1130193 91.3910056,55.7250187 91.3910056,55.2935495 L91.3910056,55.2935495 L91.3910056,51.8933133 C91.3910056,51.6550391 91.3636364,51.4038854 91.3088976,51.1398518 C91.2541589,50.8758184 91.168831,50.6133949 91.0529141,50.3525813 C90.9369967,50.0917677 90.7872706,49.8422239 90.6037351,49.6039499 C90.4201996,49.3656756 90.198025,49.1563807 89.9372116,48.9760652 C89.676398,48.7957496 89.3753354,48.6508534 89.0340237,48.541376 C88.6927123,48.4318985 88.3063218,48.3771601 87.8748523,48.3771601 L87.8748523,48.3771601 L83.3444241,48.3771601 C83.1125899,48.3771601 82.863046,48.4045293 82.5957927,48.459268 C82.3285391,48.5140067 82.0645057,48.5993347 81.8036921,48.7152515 C81.5428785,48.8311689 81.2933347,48.980895 81.0550607,49.1644306 C80.8167864,49.3479661 80.6058817,49.5701407 80.4223461,49.830954 C80.2388108,50.0917677 80.0923042,50.3928302 79.9828271,50.7341419 C79.8733499,51.0754534 79.8186112,51.4618438 79.8186112,51.8933133 L79.8186112,51.8933133 L79.8186112,62.0843618 L82.3301492,62.0843618 Z M96.8713105,58.8193624 L96.8713105,50.8886981 L100.13631,50.8886981 C100.477622,50.8886981 100.735215,50.9740261 100.909091,51.1446816 C101.082967,51.3153375 101.169904,51.5648813 101.169904,51.8933133 L101.169904,51.8933133 L101.169904,58.8193624 L103.681442,58.8193624 L103.681442,51.8933133 C103.681442,51.5326822 103.639583,51.1978105 103.555866,50.8886981 L103.555866,50.8886981 L105.81625,50.8886981 C106.157561,50.8886981 106.410325,50.9740261 106.574541,51.1446816 C106.738757,51.3153375 106.820865,51.5648813 106.820865,51.8933133 L106.820865,51.8933133 L106.820865,58.8193624 L109.332403,58.8193624 L109.332403,51.8933133 C109.332403,51.4618438 109.277664,51.0754534 109.168187,50.7341419 C109.05871,50.3928302 108.913813,50.0917677 108.733498,49.830954 C108.553182,49.5701407 108.343887,49.3479661 108.105613,49.1644306 C107.867339,48.980895 107.617795,48.8311689 107.356982,48.7152515 C107.096168,48.5993347 106.833745,48.5140067 106.569711,48.459268 C106.305678,48.4045293 106.054524,48.3771601 105.81625,48.3771601 L105.81625,48.3771601 L102.416014,48.3771601 L102.416014,49.149941 C102.055383,48.8794677 101.675432,48.6830525 101.276162,48.5606953 C100.876892,48.4383385 100.503381,48.3771601 100.15563,48.3771601 L100.15563,48.3771601 L95.6252011,48.3771601 C95.4513255,48.3771601 95.2871096,48.4093591 95.1325534,48.4737576 C94.9779972,48.538156 94.8427604,48.6267039 94.7268433,48.739401 C94.6109262,48.8520982 94.5207684,48.984115 94.45637,49.1354512 C94.3919716,49.2867877 94.3597725,49.4493937 94.3597725,49.6232693 L94.3597725,49.6232693 L94.3597725,58.8193624 L96.8713105,58.8193624 Z M120.241494,58.8193624 L120.241494,56.4237415 L115.730385,56.4237415 C115.421273,56.4237415 115.162069,56.3303638 114.952774,56.1436085 C114.74348,55.956853 114.638832,55.6960393 114.638832,55.3611676 L114.638832,55.3611676 L114.638832,51.8546743 C114.638832,51.5455619 114.73221,51.2863581 114.918965,51.0770635 C115.105721,50.8677686 115.369754,50.7631213 115.711066,50.7631213 L115.711066,50.7631213 L120.241494,50.7631213 C120.537727,50.7631213 120.79049,50.8564988 120.999785,51.0432543 C121.20908,51.2300096 121.313728,51.4876032 121.313728,51.8160352 C121.313728,52.1251476 121.22035,52.3843511 121.033595,52.593646 C120.846839,52.8029409 120.582806,52.9075883 120.241494,52.9075883 L120.241494,52.9075883 L115.711066,52.9075883 L115.711066,55.2935495 L120.241494,55.2935495 C120.872598,55.2935495 121.408715,55.1776323 121.849844,54.945798 C122.290974,54.7139638 122.648385,54.4257809 122.922078,54.0812492 C123.195771,53.7367178 123.393796,53.363207 123.516153,52.9607168 C123.63851,52.558227 123.699689,52.1831061 123.699689,51.8353546 C123.699689,51.2042502 123.583772,50.6681334 123.351937,50.2270045 C123.120103,49.7858753 122.83192,49.4284642 122.487388,49.1547709 C122.142857,48.8810775 121.769346,48.6830525 121.366856,48.5606953 C120.964366,48.4383385 120.589245,48.3771601 120.241494,48.3771601 L120.241494,48.3771601 L115.711066,48.3771601 C115.079961,48.3771601 114.543844,48.4930772 114.102715,48.7249115 C113.661586,48.9567458 113.304175,49.2449286 113.030482,49.5894601 C112.756789,49.9339915 112.558764,50.3075023 112.436406,50.7099924 C112.31405,51.1124826 112.252871,51.4876032 112.252871,51.8353546 L112.252871,51.8353546 L112.252871,55.3611676 C112.252871,55.9922723 112.368788,56.5283888 112.600622,56.969518 C112.832457,57.4106472 113.12064,57.7680583 113.465171,58.0417516 C113.809703,58.315445 114.183213,58.51347 114.585704,58.6358269 C114.988194,58.758184 115.363314,58.8193624 115.711066,58.8193624 L115.711066,58.8193624 L120.241494,58.8193624 Z M128.725985,58.8193624 L128.725985,50.8886981 L133.121176,50.8886981 C133.423849,50.8886981 133.705592,50.9386067 133.966405,51.0384245 C134.227219,51.1382419 134.454223,51.2815283 134.647419,51.4682838 C134.840614,51.6550391 134.99356,51.8788235 135.106257,52.1396372 C135.218955,52.4004508 135.275303,52.6950736 135.275303,53.0235054 L135.275303,53.0235054 L135.275303,58.8193624 L137.786841,58.8193624 L137.786841,53.0235054 C137.786841,52.4567994 137.716003,51.9480521 137.574327,51.4972629 C137.43265,51.0464743 137.241065,50.648814 136.999571,50.3042826 C136.758076,49.9597509 136.481163,49.6667382 136.168831,49.4252442 C135.856499,49.1837502 135.528067,48.984115 135.183536,48.8263388 C134.839004,48.6685629 134.491252,48.5542556 134.140281,48.4834172 C133.78931,48.4125791 133.456048,48.3771601 133.140496,48.3771601 L133.140496,48.3771601 L127.479875,48.3771601 C127.306,48.3771601 127.141784,48.4093591 126.987228,48.4737576 C126.832672,48.538156 126.697435,48.6267039 126.581518,48.739401 C126.4656,48.8520982 126.375443,48.984115 126.311044,49.1354512 C126.246646,49.2867877 126.214447,49.4493937 126.214447,49.6232693 L126.214447,49.6232693 L126.214447,58.8193624 L128.725985,58.8193624 Z M145.614468,58.8193624 L145.614468,50.8886981 L150,50.8886981 L150,48.3771601 L145.614468,48.3771601 L145.614468,44.9672643 L143.073951,44.9672643 L143.073951,48.3771601 L139.808951,48.3771601 L139.808951,50.8886981 L143.073951,50.8886981 L143.073951,58.8193624 L145.614468,58.8193624 Z" id="path-1"></path>
        <linearGradient x1="81.0535848%" y1="64.9317113%" x2="58.6393752%" y2="44.3262395%" id="linearGradient-3">
            <stop stop-color="#E56A00" stop-opacity="0.5" offset="0%"></stop>
            <stop stop-color="#000000" stop-opacity="0.5" offset="100%"></stop>
        </linearGradient>
    </defs>
    <g id="Page-1" stroke="none" stroke-width="1" fill="none" fill-rule="evenodd">
        <g id="Logo" transform="translate(0.859375, 0.929688)">
            <g id="MasteringPloneDevelopment" fill="#B620E0" fill-rule="nonzero">
                <path d="M42.5770097,15.0499088 C42.8024043,15.0499088 43.013309,14.99839 43.2097242,14.8953526 C43.4061392,14.7923151 43.5590855,14.6409789 43.6685627,14.4413438 L43.6685627,14.4413438 L48.121713,6.60727702 L48.121713,14.8567135 L50.6525705,14.8567135 L50.6525705,2.07684876 C50.6525705,1.78705593 50.5656327,1.52946229 50.3917568,1.30406785 C50.2178813,1.07867341 49.9957067,0.927337125 49.7252334,0.850059031 C49.4418803,0.779220779 49.1697972,0.795320395 48.9089835,0.898357854 C48.6481699,1.00139531 48.4437051,1.17527102 48.2955886,1.41998496 L48.2955886,1.41998496 L42.5770097,11.3598798 L36.8584307,1.41998496 C36.7875926,1.297628 36.7006548,1.19298058 36.5976174,1.10604271 C36.4945799,1.01910487 36.3802726,0.951486523 36.2546958,0.903187728 C36.1291187,0.854888905 35.998712,0.825909634 35.8634752,0.816249859 C35.7282387,0.806590111 35.5930022,0.817859826 35.4577654,0.850059031 C35.1808523,0.927337125 34.9570676,1.07867341 34.786412,1.30406785 C34.6157562,1.52946229 34.5304282,1.78705593 34.5304282,2.07684876 L34.5304282,2.07684876 L34.5304282,14.8567135 L37.0419663,14.8567135 L37.0419663,6.60727702 L41.514436,14.4413438 C41.6239132,14.6409789 41.7736395,14.7923151 41.9636148,14.8953526 C42.1535903,14.99839 42.3580551,15.0499088 42.5770097,15.0499088 Z M61.3877858,14.8567135 C62.0188902,14.8567135 62.5550071,14.7407964 62.996136,14.5089621 C63.4372652,14.2771278 63.7946763,13.9889449 64.0683696,13.6444134 C64.3420629,13.2998819 64.540088,12.9263712 64.6624448,12.5238811 C64.7848019,12.121391 64.8459804,11.7462703 64.8459804,11.3985188 L64.8459804,11.3985188 L64.8459804,7.87270579 C64.8459804,7.24160136 64.7300632,6.7054846 64.4982289,6.26435547 C64.2663947,5.82322636 63.9782118,5.46581517 63.6336804,5.19212193 C63.2891489,4.91842867 62.9156382,4.72040356 62.513148,4.59804658 C62.1106579,4.4756896 61.7355372,4.41451112 61.3877858,4.41451112 L61.3877858,4.41451112 L55.8720618,4.41451112 L55.8720618,6.80047225 L61.3877858,6.80047225 C61.6968982,6.80047225 61.9528817,6.89706987 62.1557369,7.0902651 C62.3585918,7.28346034 62.4600194,7.54427392 62.4600194,7.87270579 L62.4600194,7.87270579 L62.4600194,11.3791993 C62.4600194,11.6883117 62.3666417,11.9459053 62.1798861,12.1519802 C61.9931309,12.3580552 61.7290973,12.4610926 61.3877858,12.4610926 L61.3877858,12.4610926 L56.876677,12.4610926 C56.5804443,12.4610926 56.3244605,12.3693249 56.1087259,12.1857894 C55.8929913,12.0022539 55.785124,11.7462703 55.785124,11.4178384 C55.785124,11.108726 55.8785015,10.8495224 56.065257,10.6402275 C56.2520126,10.4309327 56.5160459,10.3262853 56.8573574,10.3262853 L56.8573574,10.3262853 L61.3877858,10.3262853 L61.3877858,7.93066439 L56.8573574,7.93066439 C56.2262532,7.93066439 55.6901364,8.04658153 55.2490072,8.27841581 C54.807878,8.51025009 54.4504669,8.79843297 54.1767736,9.14296446 C53.9030803,9.48749598 53.7050552,9.86261673 53.5826983,10.2683267 C53.4603412,10.6740367 53.3991628,11.0507674 53.3991628,11.3985188 C53.3991628,12.0296233 53.5150799,12.56574 53.7469142,13.0068692 C53.9787485,13.4479983 54.2669314,13.8054095 54.6114628,14.0791027 C54.9559945,14.352796 55.3295053,14.5508211 55.7319951,14.673178 C56.1344853,14.7955351 56.5096062,14.8567135 56.8573574,14.8567135 L56.8573574,14.8567135 L61.3877858,14.8567135 Z M74.3833852,14.8567135 C74.6216592,14.8567135 74.874423,14.8293442 75.1416764,14.7746056 C75.40893,14.7198669 75.6729633,14.634539 75.933777,14.5186219 C76.1945906,14.4027047 76.4441344,14.2529784 76.6824084,14.0694429 C76.9206827,13.8859075 77.1299773,13.6637329 77.3102928,13.4029194 C77.4906084,13.1421058 77.6355049,12.8394333 77.7449823,12.4949018 C77.8544595,12.1503703 77.9091982,11.7623698 77.9091982,11.3309005 C77.9091982,10.9767092 77.8464096,10.5935387 77.7208328,10.1813889 C77.595256,9.76923902 77.3940109,9.38767843 77.1170979,9.0367071 C76.8401846,8.68573574 76.4763335,8.39433295 76.0255446,8.16249867 C75.5747557,7.93066439 75.0273694,7.81474725 74.3833852,7.81474725 L74.3833852,7.81474725 L70.4905012,7.81474725 C70.4325425,7.81474725 70.3729742,7.81313728 70.3117955,7.80991734 C70.2506171,7.80669744 70.1958784,7.79220779 70.1475796,7.76644842 C70.0992809,7.74068906 70.059032,7.69883011 70.0268326,7.64087151 C69.9946333,7.58291297 69.9753139,7.50241494 69.9688739,7.39937748 C69.9688739,7.34785875 69.9720939,7.29473005 69.9785339,7.23999142 C69.9849736,7.18525275 70.0059031,7.13373402 70.0413222,7.08543523 C70.0767415,7.03713641 70.13148,6.99849736 70.2055383,6.96951809 C70.2795964,6.94053879 70.3810238,6.92604917 70.5098206,6.92604917 L70.5098206,6.92604917 L76.663089,6.92604917 L76.663089,4.41451112 L70.4905012,4.41451112 C70.1813888,4.41451112 69.8497371,4.46763979 69.4955457,4.57389718 C69.1413546,4.68015455 68.8129225,4.85242032 68.5102501,5.09069441 C68.2075774,5.32896856 67.9564238,5.63969088 67.7567886,6.02286144 C67.5571536,6.40603197 67.4573362,6.87775035 67.4573362,7.43801653 C67.4573362,7.72780938 67.5104647,8.04014166 67.6167222,8.3750134 C67.7229794,8.70988514 67.8968552,9.02221745 68.1383492,9.3120103 C68.3798432,9.60180315 68.6937857,9.84329718 69.0801761,10.0364924 C69.4665666,10.2296876 69.9366749,10.3262853 70.4905012,10.3262853 L70.4905012,10.3262853 L74.3833852,10.3262853 C75.0273694,10.3262853 75.3654611,10.661157 75.3976602,11.3309005 C75.3976602,11.6593324 75.3107224,11.9104862 75.1368465,12.0843619 C74.9629709,12.2582376 74.7053773,12.3451755 74.3640656,12.3451755 L74.3640656,12.3451755 L67.582913,12.3451755 L67.582913,14.8567135 L74.3833852,14.8567135 Z M85.4277127,14.8567135 L85.4277127,6.92604917 L89.8132446,6.92604917 L89.8132446,4.41451112 L85.4277127,4.41451112 L85.4277127,1.00461522 L82.8871955,1.00461522 L82.8871955,4.41451112 L79.6221959,4.41451112 L79.6221959,6.92604917 L82.8871955,6.92604917 L82.8871955,14.8567135 L85.4277127,14.8567135 Z M100.026833,14.8567135 L100.026833,12.4610926 L95.5157239,12.4610926 C95.2066115,12.4610926 94.947408,12.3677149 94.7381131,12.1809595 C94.5288182,11.9942041 94.4241709,11.7333906 94.4241709,11.3985188 L94.4241709,11.3985188 L94.4241709,7.89202534 C94.4241709,7.58291297 94.5175484,7.32370935 94.7043039,7.1144145 C94.8910594,6.90511968 95.1550928,6.80047225 95.4964042,6.80047225 L95.4964042,6.80047225 L100.026833,6.80047225 C100.323065,6.80047225 100.575829,6.89384993 100.785124,7.08060536 C100.994419,7.26736072 101.099066,7.52495437 101.099066,7.85338629 C101.099066,8.16249867 101.005689,8.42170225 100.818933,8.6309971 C100.632178,8.84029193 100.368144,8.94493935 100.026833,8.94493935 L100.026833,8.94493935 L95.4964042,8.94493935 L95.4964042,11.3309005 L100.026833,11.3309005 C100.657937,11.3309005 101.194054,11.2149834 101.635183,10.9831491 C102.076312,10.7513148 102.433723,10.4631319 102.707416,10.1186004 C102.98111,9.77406889 103.179135,9.40055811 103.301492,8.99806805 C103.423849,8.59557796 103.485027,8.22045721 103.485027,7.87270579 C103.485027,7.24160136 103.36911,6.7054846 103.137276,6.26435547 C102.905442,5.82322636 102.617259,5.46581517 102.272727,5.19212193 C101.928196,4.91842867 101.554685,4.72040356 101.152195,4.59804658 C100.749705,4.4756896 100.374584,4.41451112 100.026833,4.41451112 L100.026833,4.41451112 L95.4964042,4.41451112 C94.8653001,4.41451112 94.3291833,4.53042826 93.8880541,4.76226254 C93.4469249,4.99409682 93.0895138,5.28227971 92.8158205,5.6268112 C92.5421271,5.97134271 92.3441021,6.3448535 92.2217452,6.74734356 C92.0993881,7.14983364 92.0382097,7.52495437 92.0382097,7.87270579 L92.0382097,7.87270579 L92.0382097,11.3985188 C92.0382097,12.0296233 92.1541268,12.56574 92.3859611,13.0068692 C92.6177954,13.4479983 92.9059782,13.8054095 93.2505097,14.0791027 C93.5950414,14.352796 93.9685522,14.5508211 94.371042,14.673178 C94.7735322,14.7955351 95.1486531,14.8567135 95.4964042,14.8567135 L95.4964042,14.8567135 L100.026833,14.8567135 Z M108.453365,14.8567135 L108.453365,7.93066439 C108.453365,7.60223246 108.540303,7.35268862 108.714178,7.18203285 C108.888054,7.01137704 109.145648,6.92604917 109.486959,6.92604917 L109.486959,6.92604917 L115.13792,6.92604917 L115.13792,4.41451112 L109.46764,4.41451112 C109.235806,4.41451112 108.986262,4.44188042 108.719008,4.49661909 C108.451755,4.55135772 108.187721,4.63668563 107.926908,4.75260277 C107.666094,4.86851991 107.41655,5.01824622 107.178276,5.20178168 C106.940002,5.38531717 106.729097,5.60749167 106.545562,5.86830525 C106.362026,6.12911881 106.21552,6.43018137 106.106043,6.77149298 C105.996565,7.11280453 105.941827,7.499195 105.941827,7.93066439 L105.941827,7.93066439 L105.941827,14.8567135 L108.453365,14.8567135 Z M120.164216,2.27004399 L120.164216,0 L117.652678,0 L117.652678,2.27004399 L120.164216,2.27004399 Z M120.164216,14.8567135 L120.164216,4.41451112 L117.652678,4.41451112 L117.652678,14.8567135 L120.164216,14.8567135 Z M125.905334,14.8567135 L125.905334,6.92604917 L130.300526,6.92604917 C130.603198,6.92604917 130.884941,6.97595793 131.145755,7.07577545 C131.406569,7.17559301 131.633573,7.31887945 131.826768,7.50563487 C132.019964,7.69239024 132.17291,7.91617474 132.285607,8.17698829 C132.398304,8.43780187 132.454653,8.7324246 132.454653,9.06085649 L132.454653,9.06085649 L132.454653,14.8567135 L134.966191,14.8567135 L134.966191,9.06085649 C134.966191,8.49415047 134.895353,7.98540302 134.753676,7.53461414 C134.612,7.08382526 134.420414,6.68616508 134.17892,6.34163356 C133.937426,5.99710208 133.660513,5.70408929 133.348181,5.46259526 C133.035848,5.2211012 132.707417,5.02146613 132.362885,4.86369003 C132.018353,4.70591391 131.670602,4.59160674 131.319631,4.52076849 C130.968659,4.44993023 130.635398,4.41451112 130.319845,4.41451112 L130.319845,4.41451112 L124.659225,4.41451112 C124.485349,4.41451112 124.321133,4.4467103 124.166577,4.51110871 C124.012021,4.57550712 123.876784,4.66405496 123.760867,4.77675216 C123.64495,4.8894494 123.554792,5.02146613 123.490394,5.17280241 C123.425995,5.32413866 123.393796,5.48674466 123.393796,5.66062037 L123.393796,5.66062037 L123.393796,14.8567135 L125.905334,14.8567135 Z M145.826983,19.3871418 C146.065257,19.3871418 146.318021,19.3597725 146.585274,19.3050338 C146.852528,19.2502952 147.116561,19.1649673 147.377375,19.0490501 C147.638188,18.933133 147.887732,18.7834067 148.126006,18.5998712 C148.36428,18.4163357 148.573575,18.1941612 148.753891,17.9333476 C148.934206,17.6725341 149.079103,17.3698615 149.18858,17.02533 C149.298057,16.6807985 149.352796,16.2927981 149.352796,15.8613287 L149.352796,15.8613287 L149.352796,7.93066439 C149.352796,7.499195 149.298057,7.11280453 149.18858,6.77149298 C149.079103,6.43018137 148.934206,6.12911881 148.753891,5.86830525 C148.573575,5.60749167 148.36428,5.38531717 148.126006,5.20178168 C147.887732,5.01824622 147.638188,4.86851991 147.377375,4.75260277 C147.116561,4.63668563 146.852528,4.55135772 146.585274,4.49661909 C146.318021,4.44188042 146.065257,4.41451112 145.826983,4.41451112 L145.826983,4.41451112 L141.296554,4.41451112 C140.865085,4.41451112 140.478695,4.46924976 140.137383,4.57872706 C139.796072,4.68820436 139.495009,4.83310077 139.234195,5.01341632 C138.973382,5.19373187 138.751208,5.40302672 138.567672,5.64130085 C138.384136,5.87957497 138.23441,6.12911881 138.118493,6.38993239 C138.002576,6.65074594 137.917248,6.91316949 137.862509,7.17720295 C137.807771,7.44123646 137.780401,7.69239024 137.780401,7.93066439 L137.780401,7.93066439 L137.780401,11.3309005 C137.780401,11.7623698 137.83514,12.1503703 137.944617,12.4949018 C138.054095,12.8394333 138.198991,13.1421058 138.379307,13.4029194 C138.559622,13.6637329 138.768917,13.8859075 139.007191,14.0694429 C139.245465,14.2529784 139.495009,14.4027047 139.755823,14.5186219 C140.016636,14.634539 140.27906,14.7198669 140.543093,14.7746056 C140.807127,14.8293442 141.05828,14.8567135 141.296554,14.8567135 L141.296554,14.8567135 L145.826983,14.8567135 L145.826983,12.3451755 L141.315874,12.3451755 C140.981002,12.3451755 140.726629,12.2582376 140.552753,12.0843619 C140.378877,11.9104862 140.291939,11.6593324 140.291939,11.3309005 L140.291939,11.3309005 L140.291939,7.93066439 C140.291939,7.64087151 140.382097,7.40098745 140.562413,7.21101212 C140.742728,7.02103682 140.987442,6.92604917 141.296554,6.92604917 L141.296554,6.92604917 L145.826983,6.92604917 C146.168294,6.92604917 146.422668,7.01137704 146.590104,7.18203285 C146.75754,7.35268862 146.841258,7.60223246 146.841258,7.93066439 L146.841258,7.93066439 L146.841258,15.8613287 C146.841258,16.1897606 146.75754,16.4409144 146.590104,16.6147902 C146.422668,16.7886659 146.168294,16.8756037 145.826983,16.8756037 L145.826983,16.8756037 L141.296554,16.8756037 L141.296554,19.3871418 L145.826983,19.3871418 Z M88.7635504,36.838038 L88.7635504,26.5117528 C88.7635504,26.1833207 88.8504882,25.9321671 89.024364,25.7582912 C89.1982399,25.5844156 89.4526135,25.4974776 89.7874853,25.4974776 L89.7874853,25.4974776 L95.4481055,25.4974776 C95.7765375,25.4974776 96.0663303,25.5506064 96.3174842,25.6568639 C96.5686379,25.7631211 96.7827626,25.9096274 96.9598582,26.0963829 C97.136954,26.2831385 97.2770204,26.5085328 97.3800578,26.7725664 C97.4830953,27.0365998 97.5507137,27.3263925 97.5829128,27.6419448 L97.5829128,27.6419448 L97.5829128,28.7817968 C97.5829128,29.1037886 97.531394,29.3919718 97.4283566,29.6463454 C97.3253191,29.9007191 97.1804229,30.1180638 96.9936674,30.2983794 C96.8069121,30.4786949 96.5831277,30.6219813 96.322314,30.7282387 C96.0615004,30.8344962 95.7700976,30.9005044 95.4481055,30.9262638 L95.4481055,30.9262638 L89.7681656,30.9262638 L89.7681656,33.4378019 L95.4481055,33.4378019 C95.7572179,33.4378019 96.0872598,33.4023828 96.4382312,33.3315444 C96.7892026,33.2607063 97.136954,33.1480089 97.4814854,32.9934527 C97.8260169,32.8388965 98.1560588,32.6392615 98.4716111,32.3945476 C98.7871632,32.1498336 99.0656864,31.8552108 99.3071803,31.5106794 C99.5486743,31.1661479 99.7402597,30.7684876 99.8819362,30.3176987 C100.023613,29.8669099 100.094451,29.3549426 100.094451,28.7817968 L100.094451,28.7817968 L100.094451,27.6419448 C100.094451,27.3328324 100.059032,27.0027906 99.9881936,26.6518191 C99.9173553,26.300848 99.8030482,25.9530966 99.6452721,25.6085649 C99.4874959,25.2640334 99.287861,24.9339915 99.0463667,24.6184395 C98.8048727,24.3028872 98.51186,24.0243641 98.1673286,23.78287 C97.8227969,23.541376 97.4251369,23.3481807 96.974348,23.2032843 C96.5235591,23.0583879 96.0148115,22.9859397 95.4481055,22.9859397 L95.4481055,22.9859397 L89.7681656,22.9859397 C89.4204142,22.9859397 89.0404637,23.0487281 88.6283139,23.174305 C88.216164,23.2998819 87.8346034,23.501127 87.483632,23.7780401 C87.1326606,24.0549533 86.8396479,24.4188043 86.6045936,24.8695931 C86.3695396,25.320382 86.2520123,25.8677687 86.2520123,26.5117528 L86.2520123,26.5117528 L86.2520123,36.838038 L88.7635504,36.838038 Z M107.371471,36.838038 L107.371471,34.3264999 L106.250939,34.3264999 C105.961146,34.3264999 105.719652,34.2347323 105.526457,34.0511968 C105.333262,33.8676612 105.236664,33.6213374 105.236664,33.312225 L105.236664,33.312225 L105.236664,21.9813245 L102.725126,21.9813245 L102.725126,33.312225 C102.725126,33.9626488 102.841043,34.5116453 103.072877,34.9592142 C103.304712,35.4067834 103.597725,35.7706342 103.951916,36.0507675 C104.306107,36.3309005 104.687668,36.5321456 105.096598,36.6545024 C105.505528,36.7768596 105.890308,36.838038 106.250939,36.838038 L106.250939,36.838038 L107.371471,36.838038 Z M117.643018,36.838038 C117.881292,36.838038 118.134056,36.8106688 118.401309,36.75593 C118.668563,36.7011913 118.932596,36.6158634 119.19341,36.4999462 C119.454223,36.3840291 119.703767,36.2343028 119.942041,36.0507675 C120.180315,35.867232 120.38961,35.6450574 120.569926,35.3842437 C120.750242,35.1234304 120.895138,34.8207577 121.004615,34.4762263 C121.114093,34.1316948 121.168831,33.7436942 121.168831,33.312225 L121.168831,33.312225 L121.168831,29.9119889 C121.168831,29.5577975 121.106043,29.174627 120.980466,28.7624772 C120.854889,28.3503273 120.653644,27.9687667 120.376731,27.6177953 C120.099817,27.2668242 119.735966,26.9754213 119.285178,26.743587 C118.834389,26.5117528 118.287002,26.3958356 117.643018,26.3958356 L117.643018,26.3958356 L113.11259,26.3958356 C112.764838,26.3958356 112.384888,26.457014 111.972738,26.5793709 C111.560588,26.701728 111.179027,26.9029731 110.828056,27.1831061 C110.477085,27.4632391 110.184072,27.8270902 109.949018,28.2746591 C109.713964,28.7222283 109.596437,29.2680048 109.596437,29.9119889 L109.596437,29.9119889 L109.596437,33.312225 C109.596437,33.9626488 109.713964,34.5116453 109.949018,34.9592142 C110.184072,35.4067834 110.477085,35.7706342 110.828056,36.0507675 C111.179027,36.3309005 111.560588,36.5321456 111.972738,36.6545024 C112.384888,36.7768596 112.764838,36.838038 113.11259,36.838038 L113.11259,36.838038 L117.643018,36.838038 Z M117.643018,34.3264999 L113.131909,34.3264999 C112.797038,34.3264999 112.542664,34.2395621 112.368788,34.0656863 C112.194912,33.8918107 112.107975,33.6406568 112.107975,33.312225 L112.107975,33.312225 L112.107975,29.9119889 C112.107975,29.5835569 112.194912,29.334013 112.368788,29.1633572 C112.542664,28.9927016 112.797038,28.9073737 113.131909,28.9073737 L113.131909,28.9073737 L117.643018,28.9073737 C117.97145,28.9073737 118.222604,28.9910915 118.396479,29.1585273 C118.570355,29.3259632 118.657293,29.5835569 118.657293,29.9313083 L118.657293,29.9313083 L118.657293,33.312225 C118.657293,33.6406568 118.573575,33.8918107 118.406139,34.0656863 C118.238703,34.2395621 117.98433,34.3264999 117.643018,34.3264999 L117.643018,34.3264999 Z M126.639476,36.838038 L126.639476,28.9073737 L131.034668,28.9073737 C131.33734,28.9073737 131.619083,28.9572823 131.879897,29.0571 C132.140711,29.1569175 132.367715,29.3002038 132.56091,29.4869594 C132.754105,29.6737146 132.907051,29.8974991 133.019749,30.1583127 C133.132446,30.4191263 133.188795,30.7137492 133.188795,31.0421809 L133.188795,31.0421809 L133.188795,36.838038 L135.700333,36.838038 L135.700333,31.0421809 C135.700333,30.4754749 135.629494,29.9667276 135.487818,29.5159385 C135.346141,29.0651499 135.154556,28.6674896 134.913062,28.3229581 C134.671568,27.9784264 134.394655,27.6854137 134.082323,27.4439197 C133.76999,27.2024258 133.441558,27.0027906 133.097027,26.8450144 C132.752495,26.6872385 132.404744,26.5729312 132.053773,26.5020928 C131.702801,26.4312547 131.369539,26.3958356 131.053987,26.3958356 L131.053987,26.3958356 L125.393367,26.3958356 C125.219491,26.3958356 125.055275,26.4280347 124.900719,26.4924331 C124.746163,26.5568315 124.610926,26.6453794 124.495009,26.7580766 C124.379092,26.8707737 124.288934,27.0027906 124.224536,27.1541267 C124.160137,27.3054632 124.127938,27.4680692 124.127938,27.6419448 L124.127938,27.6419448 L124.127938,36.838038 L126.639476,36.838038 Z M146.503166,36.838038 L146.503166,34.4424171 L141.992057,34.4424171 C141.682945,34.4424171 141.423741,34.3490393 141.214447,34.1622841 C141.005152,33.9755285 140.900504,33.7147149 140.900504,33.3798431 L140.900504,33.3798431 L140.900504,29.8733498 C140.900504,29.5642375 140.993882,29.3050337 141.180638,29.0957391 C141.367393,28.8864442 141.631426,28.7817968 141.972738,28.7817968 L141.972738,28.7817968 L146.503166,28.7817968 C146.799399,28.7817968 147.052163,28.8751743 147.261458,29.0619299 C147.470752,29.2486851 147.5754,29.5062788 147.5754,29.8347108 C147.5754,30.1438232 147.482022,30.4030267 147.295267,30.6123216 C147.108511,30.8216165 146.844478,30.9262638 146.503166,30.9262638 L146.503166,30.9262638 L141.972738,30.9262638 L141.972738,33.312225 L146.503166,33.312225 C147.134271,33.312225 147.670387,33.1963079 148.111517,32.9644736 C148.552646,32.7326393 148.910057,32.4444565 149.18375,32.0999248 C149.457443,31.7553933 149.655469,31.3818825 149.777825,30.9793924 C149.900182,30.5769025 149.961361,30.2017816 149.961361,29.8540302 C149.961361,29.2229258 149.845444,28.6868089 149.61361,28.24568 C149.381775,27.8045508 149.093592,27.4471397 148.749061,27.1734464 C148.404529,26.8997531 148.031018,26.701728 147.628528,26.5793709 C147.226038,26.457014 146.850918,26.3958356 146.503166,26.3958356 L146.503166,26.3958356 L141.972738,26.3958356 C141.341634,26.3958356 140.805517,26.5117528 140.364388,26.743587 C139.923259,26.9754213 139.565847,27.2636042 139.292154,27.6081356 C139.018461,27.9526671 138.820436,28.3261778 138.698079,28.728668 C138.575722,29.1311581 138.514543,29.5062788 138.514543,29.8540302 L138.514543,29.8540302 L138.514543,33.3798431 C138.514543,34.0109479 138.630461,34.5470644 138.862295,34.9881936 C139.094129,35.4293228 139.382312,35.7867339 139.726843,36.0604272 C140.071375,36.3341205 140.444886,36.5321456 140.847376,36.6545024 C141.249866,36.7768596 141.624987,36.838038 141.972738,36.838038 L141.972738,36.838038 L146.503166,36.838038 Z M8.0465815,58.8193624 C8.87732104,58.8193624 9.64688204,58.6744659 10.3552646,58.3846732 C11.0636471,58.0948802 11.675432,57.6940002 12.1906193,57.1820329 C12.7058066,56.6700653 13.1099066,56.0598904 13.4029194,55.3515079 C13.6959322,54.6431254 13.8424385,53.8671244 13.8424385,53.0235054 L13.8424385,53.0235054 L13.8424385,50.7631213 C13.8424385,49.9259417 13.6959322,49.1515509 13.4029194,48.4399484 C13.1099066,47.7283461 12.7058066,47.1165611 12.1906193,46.6045938 C11.675432,46.0926265 11.0636471,45.6917462 10.3552646,45.4019535 C9.64688204,45.1121605 8.87732104,44.9672643 8.0465815,44.9672643 L8.0465815,44.9672643 L1.26542879,44.9672643 C1.08511323,44.9672643 0.917677364,44.9994633 0.763121176,45.0638617 C0.608564988,45.1282601 0.474938283,45.2184179 0.362241066,45.3343351 C0.249543843,45.4502522 0.160996029,45.585489 0.0965976172,45.7400452 C0.0321992057,45.8946014 0,46.0588173 0,46.2326928 L0,46.2326928 L0,57.5539336 C0,57.7342491 0.0321992057,57.901685 0.0965976172,58.0562412 C0.160996029,58.2107974 0.249543843,58.344424 0.362241066,58.4571215 C0.474938283,58.5698186 0.608564988,58.6583663 0.763121176,58.7227649 C0.917677364,58.7871631 1.08511323,58.8193624 1.26542879,58.8193624 L1.26542879,58.8193624 L8.0465815,58.8193624 Z M8.0465815,56.3078244 L2.51153805,56.3078244 L2.51153805,47.478802 L8.0465815,47.478802 C8.53600943,47.478802 8.98196843,47.5576903 9.38445852,47.7154664 C9.78694858,47.8732423 10.13309,48.0954169 10.4228829,48.3819899 C10.7126757,48.6685629 10.9364602,49.0147042 11.0942363,49.4204143 C11.2520125,49.8261242 11.3309005,50.2736934 11.3309005,50.7631213 L11.3309005,50.7631213 L11.3309005,53.0235054 C11.3309005,53.5193733 11.2520125,53.968552 11.0942363,54.3710422 C10.9364602,54.7735323 10.7126757,55.1180638 10.4228829,55.4046368 C10.13309,55.6912095 9.78694858,55.9133841 9.38445852,56.0711603 C8.98196843,56.2289364 8.53600943,56.3078244 8.0465815,56.3078244 L8.0465815,56.3078244 Z M24.6259525,58.8193624 L24.6259525,56.4237415 L20.1148438,56.4237415 C19.8057314,56.4237415 19.5465279,56.3303638 19.337233,56.1436085 C19.1279382,55.956853 19.0232908,55.6960393 19.0232908,55.3611676 L19.0232908,55.3611676 L19.0232908,51.8546743 C19.0232908,51.5455619 19.1166685,51.2863581 19.3034238,51.0770635 C19.4901792,50.8677686 19.7542127,50.7631213 20.0955243,50.7631213 L20.0955243,50.7631213 L24.6259525,50.7631213 C24.9221852,50.7631213 25.174949,50.8564988 25.3842438,51.0432543 C25.5935387,51.2300096 25.6981861,51.4876032 25.6981861,51.8160352 C25.6981861,52.1251476 25.6048084,52.3843511 25.418053,52.593646 C25.2312976,52.8029409 24.9672641,52.9075883 24.6259525,52.9075883 L24.6259525,52.9075883 L20.0955243,52.9075883 L20.0955243,55.2935495 L24.6259525,55.2935495 C25.257057,55.2935495 25.7931738,55.1776323 26.234303,54.945798 C26.6754319,54.7139638 27.0328433,54.4257809 27.3065363,54.0812492 C27.5802296,53.7367178 27.7782547,53.363207 27.9006118,52.9607168 C28.0229687,52.558227 28.0841471,52.1831061 28.0841471,51.8353546 C28.0841471,51.2042502 27.9682302,50.6681334 27.736396,50.2270045 C27.5045617,49.7858753 27.2163785,49.4284642 26.8718471,49.1547709 C26.5273157,48.8810775 26.1538049,48.6830525 25.7513148,48.5606953 C25.3488247,48.4383385 24.973704,48.3771601 24.6259525,48.3771601 L24.6259525,48.3771601 L20.0955243,48.3771601 C19.4644199,48.3771601 18.9283031,48.4930772 18.487174,48.7249115 C18.0460449,48.9567458 17.6886337,49.2449286 17.4149404,49.5894601 C17.1412472,49.9339915 16.9432221,50.3075023 16.8208651,50.7099924 C16.6985081,51.1124826 16.6373296,51.4876032 16.6373296,51.8353546 L16.6373296,51.8353546 L16.6373296,55.3611676 C16.6373296,55.9922723 16.7532467,56.5283888 16.985081,56.969518 C17.2169153,57.4106472 17.5050982,57.7680583 17.8496297,58.0417516 C18.1941612,58.315445 18.567672,58.51347 18.9701621,58.6358269 C19.3726521,58.758184 19.7477729,58.8193624 20.0955243,58.8193624 L20.0955243,58.8193624 L24.6259525,58.8193624 Z M31.864334,58.8386818 C32.8753889,58.8386818 33.8139959,58.7018354 34.6801546,58.4281421 C35.5463133,58.1544488 36.3480733,57.777718 37.0854352,57.2979501 C37.8227971,56.8181818 38.4957605,56.2482558 39.1043253,55.588172 C39.7128904,54.9280885 40.2634967,54.210046 40.7561446,53.4340454 C41.2487925,52.6580444 41.6850916,51.8417946 42.0650424,50.9852956 C42.4449931,50.1287969 42.7766449,49.2594182 43.0599979,48.3771601 L43.0599979,48.3771601 L40.3939037,48.3771601 C40.2779865,48.821509 40.1025008,49.3238166 39.8674466,49.8840829 C39.6323923,50.4443489 39.3474294,51.0158848 39.0125577,51.5986905 C38.6776859,52.1814962 38.2961253,52.7498121 37.8678758,53.3036384 C37.4396266,53.8574648 36.9743479,54.3517225 36.4720403,54.786412 C35.9697327,55.2211012 35.4368358,55.5704625 34.8733498,55.8344961 C34.3098638,56.0985295 33.7222282,56.2305463 33.1104432,56.2305463 L33.1104432,56.2305463 L33.1104432,48.3771601 L30.5989051,48.3771601 L30.5989051,57.5925726 C30.5989051,57.7664485 30.6311045,57.9290545 30.6955029,58.0803907 C30.7599013,58.2317269 30.8500591,58.3637437 30.9659762,58.4764409 C31.0818934,58.589138 31.2171299,58.6776859 31.3716861,58.7420843 C31.5262423,58.8064827 31.6904582,58.8386818 31.864334,58.8386818 Z M52.5587635,58.8193624 L52.5587635,56.4237415 L48.0476547,56.4237415 C47.7385423,56.4237415 47.4793388,56.3303638 47.2700439,56.1436085 C47.0607492,55.956853 46.9561017,55.6960393 46.9561017,55.3611676 L46.9561017,55.3611676 L46.9561017,51.8546743 C46.9561017,51.5455619 47.0494794,51.2863581 47.236235,51.0770635 C47.4229902,50.8677686 47.6870236,50.7631213 48.0283353,50.7631213 L48.0283353,50.7631213 L52.5587635,50.7631213 C52.8549962,50.7631213 53.1077599,50.8564988 53.3170549,51.0432543 C53.5263498,51.2300096 53.6309971,51.4876032 53.6309971,51.8160352 C53.6309971,52.1251476 53.5376193,52.3843511 53.3508641,52.593646 C53.1641085,52.8029409 52.9000752,52.9075883 52.5587635,52.9075883 L52.5587635,52.9075883 L48.0283353,52.9075883 L48.0283353,55.2935495 L52.5587635,55.2935495 C53.1898679,55.2935495 53.7259847,55.1776323 54.1671139,54.945798 C54.6082431,54.7139638 54.9656542,54.4257809 55.2393475,54.0812492 C55.5130405,53.7367178 55.7110659,53.363207 55.8334228,52.9607168 C55.9557796,52.558227 56.0169583,52.1831061 56.0169583,51.8353546 C56.0169583,51.2042502 55.9010412,50.6681334 55.6692069,50.2270045 C55.4373726,49.7858753 55.1491897,49.4284642 54.804658,49.1547709 C54.4601266,48.8810775 54.0866158,48.6830525 53.6841257,48.5606953 C53.2816358,48.4383385 52.9065149,48.3771601 52.5587635,48.3771601 L52.5587635,48.3771601 L48.0283353,48.3771601 C47.3972308,48.3771601 46.861114,48.4930772 46.4199848,48.7249115 C45.9788559,48.9567458 45.6214445,49.2449286 45.3477515,49.5894601 C45.0740582,49.9339915 44.8760331,50.3075023 44.753676,50.7099924 C44.6313191,51.1124826 44.5701404,51.4876032 44.5701404,51.8353546 L44.5701404,51.8353546 L44.5701404,55.3611676 C44.5701404,55.9922723 44.6860579,56.5283888 44.9178921,56.969518 C45.1497264,57.4106472 45.4379093,57.7680583 45.7824407,58.0417516 C46.1269721,58.315445 46.5004829,58.51347 46.9029731,58.6358269 C47.3054632,58.758184 47.6805839,58.8193624 48.0283353,58.8193624 L48.0283353,58.8193624 L52.5587635,58.8193624 Z M63.1201029,58.8193624 L63.1201029,56.3078244 L61.9995706,56.3078244 C61.7097779,56.3078244 61.4682836,56.2160567 61.2750887,56.0325212 C61.0818931,55.8489857 60.9852957,55.6026618 60.9852957,55.2935495 L60.9852957,55.2935495 L60.9852957,43.962649 L58.4737576,43.962649 L58.4737576,55.2935495 C58.4737576,55.9439733 58.5896748,56.4929698 58.821509,56.9405387 C59.0533433,57.3881078 59.346356,57.7519587 59.7005474,58.032092 C60.0547386,58.312225 60.4362992,58.51347 60.845229,58.6358269 C61.2541591,58.758184 61.6389395,58.8193624 61.9995706,58.8193624 L61.9995706,58.8193624 L63.1201029,58.8193624 Z M73.3916497,58.8193624 C73.6299237,58.8193624 73.8826875,58.7919932 74.1499408,58.7372545 C74.4171944,58.6825158 74.6812278,58.5971878 74.9420414,58.4812707 C75.2028551,58.3653536 75.4523989,58.2156272 75.6906729,58.032092 C75.9289471,57.8485564 76.138242,57.6263818 76.3185576,57.3655682 C76.4988731,57.1047548 76.6437693,56.8020822 76.7532468,56.4575507 C76.8627239,56.1130193 76.9174627,55.7250187 76.9174627,55.2935495 L76.9174627,55.2935495 L76.9174627,51.8933133 C76.9174627,51.5391219 76.8546741,51.1559515 76.7290973,50.7438016 C76.6035204,50.3316518 76.4022754,49.9500912 76.1253621,49.5991198 C75.848449,49.2481486 75.4845979,48.9567458 75.0338091,48.7249115 C74.5830202,48.4930772 74.0356338,48.3771601 73.3916497,48.3771601 L73.3916497,48.3771601 L68.8612213,48.3771601 C68.5134701,48.3771601 68.1335193,48.4383385 67.7213695,48.5606953 C67.3092197,48.6830525 66.9276591,48.8842975 66.5766876,49.1644306 C66.2257165,49.4445636 65.9327035,49.8084147 65.6976495,50.2559836 C65.4625953,50.7035527 65.3450683,51.2493292 65.3450683,51.8933133 L65.3450683,51.8933133 L65.3450683,55.2935495 C65.3450683,55.9439733 65.4625953,56.4929698 65.6976495,56.9405387 C65.9327035,57.3881078 66.2257165,57.7519587 66.5766876,58.032092 C66.9276591,58.312225 67.3092197,58.51347 67.7213695,58.6358269 C68.1335193,58.758184 68.5134701,58.8193624 68.8612213,58.8193624 L68.8612213,58.8193624 L73.3916497,58.8193624 Z M73.3916497,56.3078244 L68.8805409,56.3078244 C68.5456692,56.3078244 68.2912955,56.2208866 68.1174197,56.0470107 C67.9435441,55.8731352 67.856606,55.6219812 67.856606,55.2935495 L67.856606,55.2935495 L67.856606,51.8933133 C67.856606,51.5648813 67.9435441,51.3153375 68.1174197,51.1446816 C68.2912955,50.9740261 68.5456692,50.8886981 68.8805409,50.8886981 L68.8805409,50.8886981 L73.3916497,50.8886981 C73.7200815,50.8886981 73.9712354,50.9724159 74.145111,51.1398518 C74.3189868,51.3072877 74.4059246,51.5648813 74.4059246,51.9126327 L74.4059246,51.9126327 L74.4059246,55.2935495 C74.4059246,55.6219812 74.3222065,55.8731352 74.154771,56.0470107 C73.9873348,56.2208866 73.7329612,56.3078244 73.3916497,56.3078244 L73.3916497,56.3078244 Z M82.3301492,62.0843618 L82.3301492,51.8933133 C82.3301492,51.5648813 82.417087,51.3153375 82.5909626,51.1446816 C82.7648384,50.9740261 83.0224321,50.8886981 83.3637435,50.8886981 L83.3637435,50.8886981 L87.8748523,50.8886981 C88.2032843,50.8886981 88.4528282,50.9724159 88.623484,51.1398518 C88.7941396,51.3072877 88.8794675,51.5648813 88.8794675,51.9126327 L88.8794675,51.9126327 L88.8794675,55.2935495 C88.8794675,55.6219812 88.7957497,55.8731352 88.6283139,56.0470107 C88.460878,56.2208866 88.2097241,56.3078244 87.8748523,56.3078244 L87.8748523,56.3078244 L83.3444241,56.3078244 L83.3444241,58.8193624 L87.8748523,58.8193624 C88.1131266,58.8193624 88.3642802,58.7919932 88.6283139,58.7372545 C88.8923472,58.6825158 89.1547707,58.5971878 89.4155843,58.4812707 C89.676398,58.3653536 89.9259418,58.2156272 90.1642158,58.032092 C90.40249,57.8485564 90.6117849,57.6263818 90.7921005,57.3655682 C90.972416,57.1047548 91.1173123,56.8020822 91.2267897,56.4575507 C91.3362671,56.1130193 91.3910056,55.7250187 91.3910056,55.2935495 L91.3910056,55.2935495 L91.3910056,51.8933133 C91.3910056,51.6550391 91.3636364,51.4038854 91.3088976,51.1398518 C91.2541589,50.8758184 91.168831,50.6133949 91.0529141,50.3525813 C90.9369967,50.0917677 90.7872706,49.8422239 90.6037351,49.6039499 C90.4201996,49.3656756 90.198025,49.1563807 89.9372116,48.9760652 C89.676398,48.7957496 89.3753354,48.6508534 89.0340237,48.541376 C88.6927123,48.4318985 88.3063218,48.3771601 87.8748523,48.3771601 L87.8748523,48.3771601 L83.3444241,48.3771601 C83.1125899,48.3771601 82.863046,48.4045293 82.5957927,48.459268 C82.3285391,48.5140067 82.0645057,48.5993347 81.8036921,48.7152515 C81.5428785,48.8311689 81.2933347,48.980895 81.0550607,49.1644306 C80.8167864,49.3479661 80.6058817,49.5701407 80.4223461,49.830954 C80.2388108,50.0917677 80.0923042,50.3928302 79.9828271,50.7341419 C79.8733499,51.0754534 79.8186112,51.4618438 79.8186112,51.8933133 L79.8186112,51.8933133 L79.8186112,62.0843618 L82.3301492,62.0843618 Z M96.8713105,58.8193624 L96.8713105,50.8886981 L100.13631,50.8886981 C100.477622,50.8886981 100.735215,50.9740261 100.909091,51.1446816 C101.082967,51.3153375 101.169904,51.5648813 101.169904,51.8933133 L101.169904,51.8933133 L101.169904,58.8193624 L103.681442,58.8193624 L103.681442,51.8933133 C103.681442,51.5326822 103.639583,51.1978105 103.555866,50.8886981 L103.555866,50.8886981 L105.81625,50.8886981 C106.157561,50.8886981 106.410325,50.9740261 106.574541,51.1446816 C106.738757,51.3153375 106.820865,51.5648813 106.820865,51.8933133 L106.820865,51.8933133 L106.820865,58.8193624 L109.332403,58.8193624 L109.332403,51.8933133 C109.332403,51.4618438 109.277664,51.0754534 109.168187,50.7341419 C109.05871,50.3928302 108.913813,50.0917677 108.733498,49.830954 C108.553182,49.5701407 108.343887,49.3479661 108.105613,49.1644306 C107.867339,48.980895 107.617795,48.8311689 107.356982,48.7152515 C107.096168,48.5993347 106.833745,48.5140067 106.569711,48.459268 C106.305678,48.4045293 106.054524,48.3771601 105.81625,48.3771601 L105.81625,48.3771601 L102.416014,48.3771601 L102.416014,49.149941 C102.055383,48.8794677 101.675432,48.6830525 101.276162,48.5606953 C100.876892,48.4383385 100.503381,48.3771601 100.15563,48.3771601 L100.15563,48.3771601 L95.6252011,48.3771601 C95.4513255,48.3771601 95.2871096,48.4093591 95.1325534,48.4737576 C94.9779972,48.538156 94.8427604,48.6267039 94.7268433,48.739401 C94.6109262,48.8520982 94.5207684,48.984115 94.45637,49.1354512 C94.3919716,49.2867877 94.3597725,49.4493937 94.3597725,49.6232693 L94.3597725,49.6232693 L94.3597725,58.8193624 L96.8713105,58.8193624 Z M120.241494,58.8193624 L120.241494,56.4237415 L115.730385,56.4237415 C115.421273,56.4237415 115.162069,56.3303638 114.952774,56.1436085 C114.74348,55.956853 114.638832,55.6960393 114.638832,55.3611676 L114.638832,55.3611676 L114.638832,51.8546743 C114.638832,51.5455619 114.73221,51.2863581 114.918965,51.0770635 C115.105721,50.8677686 115.369754,50.7631213 115.711066,50.7631213 L115.711066,50.7631213 L120.241494,50.7631213 C120.537727,50.7631213 120.79049,50.8564988 120.999785,51.0432543 C121.20908,51.2300096 121.313728,51.4876032 121.313728,51.8160352 C121.313728,52.1251476 121.22035,52.3843511 121.033595,52.593646 C120.846839,52.8029409 120.582806,52.9075883 120.241494,52.9075883 L120.241494,52.9075883 L115.711066,52.9075883 L115.711066,55.2935495 L120.241494,55.2935495 C120.872598,55.2935495 121.408715,55.1776323 121.849844,54.945798 C122.290974,54.7139638 122.648385,54.4257809 122.922078,54.0812492 C123.195771,53.7367178 123.393796,53.363207 123.516153,52.9607168 C123.63851,52.558227 123.699689,52.1831061 123.699689,51.8353546 C123.699689,51.2042502 123.583772,50.6681334 123.351937,50.2270045 C123.120103,49.7858753 122.83192,49.4284642 122.487388,49.1547709 C122.142857,48.8810775 121.769346,48.6830525 121.366856,48.5606953 C120.964366,48.4383385 120.589245,48.3771601 120.241494,48.3771601 L120.241494,48.3771601 L115.711066,48.3771601 C115.079961,48.3771601 114.543844,48.4930772 114.102715,48.7249115 C113.661586,48.9567458 113.304175,49.2449286 113.030482,49.5894601 C112.756789,49.9339915 112.558764,50.3075023 112.436406,50.7099924 C112.31405,51.1124826 112.252871,51.4876032 112.252871,51.8353546 L112.252871,51.8353546 L112.252871,55.3611676 C112.252871,55.9922723 112.368788,56.5283888 112.600622,56.969518 C112.832457,57.4106472 113.12064,57.7680583 113.465171,58.0417516 C113.809703,58.315445 114.183213,58.51347 114.585704,58.6358269 C114.988194,58.758184 115.363314,58.8193624 115.711066,58.8193624 L115.711066,58.8193624 L120.241494,58.8193624 Z M128.725985,58.8193624 L128.725985,50.8886981 L133.121176,50.8886981 C133.423849,50.8886981 133.705592,50.9386067 133.966405,51.0384245 C134.227219,51.1382419 134.454223,51.2815283 134.647419,51.4682838 C134.840614,51.6550391 134.99356,51.8788235 135.106257,52.1396372 C135.218955,52.4004508 135.275303,52.6950736 135.275303,53.0235054 L135.275303,53.0235054 L135.275303,58.8193624 L137.786841,58.8193624 L137.786841,53.0235054 C137.786841,52.4567994 137.716003,51.9480521 137.574327,51.4972629 C137.43265,51.0464743 137.241065,50.648814 136.999571,50.3042826 C136.758076,49.9597509 136.481163,49.6667382 136.168831,49.4252442 C135.856499,49.1837502 135.528067,48.984115 135.183536,48.8263388 C134.839004,48.6685629 134.491252,48.5542556 134.140281,48.4834172 C133.78931,48.4125791 133.456048,48.3771601 133.140496,48.3771601 L133.140496,48.3771601 L127.479875,48.3771601 C127.306,48.3771601 127.141784,48.4093591 126.987228,48.4737576 C126.832672,48.538156 126.697435,48.6267039 126.581518,48.739401 C126.4656,48.8520982 126.375443,48.984115 126.311044,49.1354512 C126.246646,49.2867877 126.214447,49.4493937 126.214447,49.6232693 L126.214447,49.6232693 L126.214447,58.8193624 L128.725985,58.8193624 Z M145.614468,58.8193624 L145.614468,50.8886981 L150,50.8886981 L150,48.3771601 L145.614468,48.3771601 L145.614468,44.9672643 L143.073951,44.9672643 L143.073951,48.3771601 L139.808951,48.3771601 L139.808951,50.8886981 L143.073951,50.8886981 L143.073951,58.8193624 L145.614468,58.8193624 Z" id="path-1"></path>
            </g>
            <g id="Rectangle-Clipped">
                <mask id="mask-2" fill="white">
                    <use xlink:href="#path-1"></use>
                </mask>
                <g id="path-1"></g>
                <g id="Rectangle" mask="url(#mask-2)">
                    <g transform="translate(-11.776323, -23.335838)">
                        <g id="path-4-link" stroke="none" fill="none" fill-rule="evenodd">
                            <rect id="path-4" fill="#B620E0" fill-rule="nonzero" x="0" y="0" width="171.454331" height="93.6953955" rx="11"></rect>
                        </g>
                        <rect id="Rectangle" stroke="#979797" fill="url(#linearGradient-3)" fill-rule="nonzero" x="0.137383278" y="0.137383278" width="171.179564" height="93.4206289" rx="11"></rect>
                    </g>
                </g>
            </g>
        </g>
    </g>
</svg>